<svg id="Layer_1" data-name="Layer 1" xmlns="http://www.w3.org/2000/svg" viewBox="0 0 45 45"><path d="M2.71,23.67A19,19,0,0,1,9.9,9.76L8.73,9.44a.46.46,0,0,1-.33-.58A.47.47,0,0,1,9,8.53l2.1.56a.48.48,0,0,1,.26.18v0h0a.47.47,0,0,1,.09.28l0,2.14a.47.47,0,0,1-.47.47h0a.47.47,0,0,1-.46-.48l0-1.18A18,18,0,0,0,3.66,23.73a.48.48,0,0,1-.48.44h0a.46.46,0,0,1-.45-.5ZM31.65,9.51a18.09,18.09,0,0,1,8,12.51l-1-.61a.47.47,0,0,0-.65.16.46.46,0,0,0,.16.65L40,23.33a.41.41,0,0,0,.25.07h0a.42.42,0,0,0,.29-.14l1.54-1.54a.46.46,0,0,0,0-.67.48.48,0,0,0-.67,0l-.85.85A19,19,0,0,0,32.17,8.72a.47.47,0,0,0-.52.79ZM30,40.87a18,18,0,0,1-14.84.7l1-.57a.47.47,0,1,0-.46-.83l-1.88,1a.5.5,0,0,0-.21.22.51.51,0,0,0,0,.32l.56,2.11a.48.48,0,0,0,.46.35l.12,0a.49.49,0,0,0,.34-.58l-.31-1.17a19,19,0,0,0,15.64-.73.46.46,0,0,0,.21-.63.47.47,0,0,0-.64-.21ZM15.43,14.29a7.08,7.08,0,0,1,5-6.75,3.69,3.69,0,1,1,4.14,0,7.08,7.08,0,0,1,5,6.75.48.48,0,0,1-.48.48H15.91a.48.48,0,0,1-.48-.48ZM22.5,7.23a2.75,2.75,0,1,0-2.74-2.74A2.74,2.74,0,0,0,22.5,7.23Zm-6.1,6.59H28.6a6.12,6.12,0,0,0-12.2,0ZM14.33,39.19H1.15a.47.47,0,0,1-.47-.47,7.08,7.08,0,0,1,5-6.76,3.69,3.69,0,1,1,4.14,0,7.08,7.08,0,0,1,5,6.76.48.48,0,0,1-.48.47ZM7.74,31.65A2.75,2.75,0,1,0,5,28.91,2.75,2.75,0,0,0,7.74,31.65Zm6.1,6.59a6.12,6.12,0,0,0-12.2,0Zm30.48.48a.47.47,0,0,1-.47.47H30.67a.48.48,0,0,1-.48-.47,7.08,7.08,0,0,1,5-6.76,3.69,3.69,0,1,1,4.14,0,7.08,7.08,0,0,1,5,6.76Zm-7.06-7.07a2.75,2.75,0,1,0-2.75-2.74A2.74,2.74,0,0,0,37.26,31.65Zm6.1,6.59a6.12,6.12,0,0,0-12.2,0ZM13.76,28a7.1,7.1,0,0,1,10-10.08,7.28,7.28,0,0,1,2,2.94,1.28,1.28,0,0,1,.45-.17,6.35,6.35,0,0,1,1.63,0,1.12,1.12,0,0,1,1,1.11.82.82,0,0,0,.41.72.8.8,0,0,0,.82,0,1.11,1.11,0,0,1,1.44.27,5.71,5.71,0,0,1,.82,1.41,1.12,1.12,0,0,1-.48,1.39.82.82,0,0,0,0,1.43,1.11,1.11,0,0,1,.48,1.38,5.53,5.53,0,0,1-.82,1.41,1.12,1.12,0,0,1-1.44.28.8.8,0,0,0-.82,0,.81.81,0,0,0-.41.71,1.11,1.11,0,0,1-1,1.11,5.66,5.66,0,0,1-.82.06,5.52,5.52,0,0,1-.81-.06,1.1,1.1,0,0,1-1-1.11.84.84,0,0,0-.41-.71.82.82,0,0,0-.83,0,1,1,0,0,1-.36.13A1.68,1.68,0,0,1,22,31.53H16.15a1.68,1.68,0,0,1-1.68-1.68A2.72,2.72,0,0,0,13.76,28Zm12.43-6.2a1.78,1.78,0,0,1-.89,1.54,1.75,1.75,0,0,1-1.77,0,.17.17,0,0,0-.22,0,4.77,4.77,0,0,0-.68,1.18.18.18,0,0,0,.07.21,1.77,1.77,0,0,1,0,3.07.17.17,0,0,0-.07.21,5,5,0,0,0,.68,1.18.18.18,0,0,0,.22,0,1.78,1.78,0,0,1,2.66,1.53.16.16,0,0,0,.14.17,4.43,4.43,0,0,0,1.36,0,.16.16,0,0,0,.15-.17,1.77,1.77,0,0,1,2.66-1.53.19.19,0,0,0,.22,0A5,5,0,0,0,31.4,28h0a.17.17,0,0,0-.08-.21,1.77,1.77,0,0,1,0-3.07.17.17,0,0,0,.08-.21,4.77,4.77,0,0,0-.68-1.18.17.17,0,0,0-.22,0,1.77,1.77,0,0,1-1.78,0,1.79,1.79,0,0,1-.88-1.54.18.18,0,0,0-.15-.17,5.16,5.16,0,0,0-1.36,0,.18.18,0,0,0-.14.17ZM12.92,23.26a6.12,6.12,0,0,0,1.55,4.08,3.71,3.71,0,0,1,.95,2.51.73.73,0,0,0,.73.73H22a.73.73,0,0,0,.72-.63,1.29,1.29,0,0,1-.16-.17,5.5,5.5,0,0,1-.81-1.41A1.1,1.1,0,0,1,22.23,27a.83.83,0,0,0,0-1.43,1.11,1.11,0,0,1-.48-1.39,5.67,5.67,0,0,1,.81-1.41A1.12,1.12,0,0,1,24,22.49a.82.82,0,0,0,.83,0,.75.75,0,0,0,.3-.31,6.15,6.15,0,0,0-12.21,1.08ZM22,32.2H16.14a.48.48,0,1,0,0,.95H22a.48.48,0,0,0,0-.95Zm-7.11-9H15a.48.48,0,0,0,.47-.42A3.66,3.66,0,0,1,18,19.74a.47.47,0,0,0-.27-.91,4.62,4.62,0,0,0-3.28,3.87.48.48,0,0,0,.41.53Zm7.58,11.06a.47.47,0,0,0-.47-.47H16.14a.48.48,0,1,0,0,1H22A.47.47,0,0,0,22.48,34.29Zm-5.2,1.15a.48.48,0,0,0,0,1h3.58a.48.48,0,1,0,0-1ZM27,24a2.25,2.25,0,1,1-2.24,2.24A2.24,2.24,0,0,1,27,24Zm-1.29,2.24A1.3,1.3,0,1,0,27,25,1.3,1.3,0,0,0,25.72,26.27Z"/></svg>