<svg id="Layer_1" data-name="Layer 1" xmlns="http://www.w3.org/2000/svg" viewBox="0 0 45 45"><path d="M32.1,28.29H30a.64.64,0,0,0,0,1.27H32.1a.64.64,0,1,0,0-1.27Z"/><path d="M37.63,25.31A.63.63,0,0,0,37,26v2.34H34.66a.64.64,0,1,0,0,1.27h2.55a1.07,1.07,0,0,0,1.06-1.06V26A.63.63,0,0,0,37.63,25.31Z"/><path d="M37.63,21a.63.63,0,0,0-.63.64v1.78a.64.64,0,1,0,1.27,0V21.61A.63.63,0,0,0,37.63,21Z"/><path d="M37.21,15.44H34.66a.64.64,0,0,0,0,1.28H37v2.33a.64.64,0,1,0,1.27,0V16.5A1.07,1.07,0,0,0,37.21,15.44Z"/><path d="M32.1,15.44H30.4a.64.64,0,0,0-.64.64.64.64,0,0,0,.64.64h1.7a.64.64,0,1,0,0-1.28Z"/><path d="M27.85,15.44H25.3a1.07,1.07,0,0,0-1.07,1.06v2.55a.64.64,0,0,0,1.28,0V16.72h2.34a.64.64,0,0,0,.64-.64A.64.64,0,0,0,27.85,15.44Z"/><path d="M24.87,24a.63.63,0,0,0,.64-.63v-1.8a.64.64,0,0,0-1.28,0v1.8A.64.64,0,0,0,24.87,24Z"/><path d="M27.85,28.29H25.51V26a.64.64,0,0,0-1.28,0V28.5a1.07,1.07,0,0,0,1.07,1.06h2.55a.64.64,0,1,0,0-1.27Z"/><path d="M37.63,12.93H35.38V12a2.76,2.76,0,0,1,.81-2l1.5-1.5a1.91,1.91,0,0,0,0-2.71l-3.3-3.3a1.92,1.92,0,0,0-2.7,0L30.18,4a2.73,2.73,0,0,1-1.95.8h-.44a1.06,1.06,0,0,1-1-.84l-.36-1.71A1.91,1.91,0,0,0,24.52.72h-.7a.64.64,0,0,0,0,1.28h.7a.63.63,0,0,1,.62.51l.36,1.71a2.34,2.34,0,0,0,2.29,1.86h.44A4,4,0,0,0,31.08,4.9l1.51-1.51a.65.65,0,0,1,.9,0l3.3,3.3a.65.65,0,0,1,0,.91l-1.5,1.5A4,4,0,0,0,34.1,12v1H24.87a3.19,3.19,0,0,0-3.19,3.19V28.88a3.19,3.19,0,0,0,3.19,3.19H34.1v1a4,4,0,0,0,1.19,2.86l1.5,1.5a.65.65,0,0,1,0,.91l-3.3,3.3a.63.63,0,0,1-.9,0L31.08,40.1a4,4,0,0,0-2.85-1.18h-.44a2.34,2.34,0,0,0-2.29,1.86l-.36,1.71a.63.63,0,0,1-.62.51H17.91a.63.63,0,0,1-.62-.51l-.36-1.71a2.34,2.34,0,0,0-2.29-1.86H14.2a4,4,0,0,0-2.86,1.18l-1.5,1.51a.63.63,0,0,1-.9,0l-3.3-3.3a.65.65,0,0,1,0-.91l1.5-1.5A4,4,0,0,0,8.33,33v-9.9H9.6v2.38a.64.64,0,1,0,1.28,0V23.14h8.46a.64.64,0,1,0,0-1.28H10.88V19.48a.64.64,0,0,0-1.28,0v2.38H8.33V12A4,4,0,0,0,7.14,9.1L5.64,7.6a.65.65,0,0,1,0-.91l3.3-3.3a.63.63,0,0,1,.9,0l1.5,1.51A4,4,0,0,0,14.2,6.08h.44a2.34,2.34,0,0,0,2.29-1.86l.36-1.71A.63.63,0,0,1,17.91,2h2.93a.64.64,0,1,0,0-1.28H17.91A1.91,1.91,0,0,0,16,2.25L15.68,4a1.06,1.06,0,0,1-1,.84H14.2A2.7,2.7,0,0,1,12.25,4l-1.51-1.5a1.92,1.92,0,0,0-2.7,0l-3.3,3.3a1.91,1.91,0,0,0,0,2.71L6.24,10a2.76,2.76,0,0,1,.81,2V33a2.76,2.76,0,0,1-.81,2l-1.5,1.5a1.91,1.91,0,0,0,0,2.71L8,42.51a1.92,1.92,0,0,0,2.7,0L12.25,41a2.73,2.73,0,0,1,1.95-.8h.44a1.06,1.06,0,0,1,1,.84L16,42.76a1.92,1.92,0,0,0,1.87,1.52h6.61a1.91,1.91,0,0,0,1.87-1.53L26.75,41a1.06,1.06,0,0,1,1-.84h.44a2.7,2.7,0,0,1,1.95.81l1.51,1.5a1.92,1.92,0,0,0,2.7,0l3.3-3.3a1.91,1.91,0,0,0,0-2.71L36.19,35a2.76,2.76,0,0,1-.81-2v-1h2.25a3.19,3.19,0,0,0,3.19-3.19V16.12a3.19,3.19,0,0,0-3.19-3.19Zm1.92,16a1.91,1.91,0,0,1-1.92,1.91H24.87A1.91,1.91,0,0,1,23,28.88V16.12a1.91,1.91,0,0,1,1.91-1.91H37.63a1.91,1.91,0,0,1,1.92,1.91Z"/><path d="M30.91,37.22a1.92,1.92,0,0,0,1.92-1.92V33.6a.64.64,0,0,0-1.28,0v1.7a.64.64,0,0,1-.64.64h-1.7a.64.64,0,1,0,0,1.28Z"/><path d="M9.6,35.3a1.92,1.92,0,0,0,1.92,1.92h1.7a.64.64,0,0,0,0-1.28h-1.7a.63.63,0,0,1-.64-.64V33.6a.64.64,0,0,0-1.28,0Z"/><path d="M26.66,37.22a.64.64,0,0,0,0-1.28H22.49a.64.64,0,0,0,0,1.28Z"/><path d="M19.94,35.94H15.77a.64.64,0,1,0,0,1.28h4.17a.64.64,0,1,0,0-1.28Z"/><path d="M10.24,31.69a.64.64,0,0,0,.64-.64v-3a.64.64,0,0,0-1.28,0v3A.64.64,0,0,0,10.24,31.69Z"/><path d="M32.19,12a.64.64,0,0,0,.64-.64V9.7a1.92,1.92,0,0,0-1.92-1.92h-1.7a.64.64,0,0,0,0,1.28h1.7a.64.64,0,0,1,.64.64v1.7A.64.64,0,0,0,32.19,12Z"/><path d="M10.88,9.7a.63.63,0,0,1,.64-.64h1.7a.64.64,0,0,0,0-1.28h-1.7A1.92,1.92,0,0,0,9.6,9.7v1.7a.64.64,0,0,0,1.28,0Z"/><path d="M22.49,9.06h4.17a.64.64,0,1,0,0-1.28H22.49a.64.64,0,0,0,0,1.28Z"/><path d="M19.94,7.78H15.77a.64.64,0,0,0,0,1.28h4.17a.64.64,0,0,0,0-1.28Z"/><path d="M10.24,13.31A.64.64,0,0,0,9.6,14v3a.64.64,0,0,0,1.28,0V14A.64.64,0,0,0,10.24,13.31Z"/></svg>