<svg id="Layer_1" data-name="Layer 1" xmlns="http://www.w3.org/2000/svg" viewBox="0 0 45 45"><defs><style>.cls-1{fill-rule:evenodd;}</style></defs><path class="cls-1" d="M32.67,26.14a1.11,1.11,0,0,1,0-2.21,1.11,1.11,0,1,1,0,2.21Zm0-3.54A2.44,2.44,0,1,0,35.11,25,2.43,2.43,0,0,0,32.67,22.6ZM12.33,23.93A1.11,1.11,0,1,1,11.22,25,1.11,1.11,0,0,1,12.33,23.93Zm0,3.54A2.44,2.44,0,1,0,9.89,25,2.43,2.43,0,0,0,12.33,27.47ZM28.25,5.26a.67.67,0,0,0,.64-.46l.46-1.44.47,1.44a.65.65,0,0,0,.63.46H32l-1.23.89a.66.66,0,0,0-.24.74L31,8.33l-1.22-.89a.68.68,0,0,0-.79,0l-1.22.89.47-1.44A.66.66,0,0,0,28,6.15l-1.23-.89Zm-4-.13,2.5,1.81-1,2.94a.67.67,0,0,0,1,.74l2.49-1.81,2.5,1.81a.67.67,0,0,0,1-.74l-1-2.94,2.5-1.81A.67.67,0,0,0,34,3.92H30.94L30,1a.67.67,0,0,0-1.27,0l-.95,2.94H24.68a.67.67,0,0,0-.39,1.21Zm9.69,26-.82.64c-2.61,2.09-3.53,5.86-4.33,9.2-.52-.1-1-.19-1.58-.26l1.39-4.18a.43.43,0,0,0,0,0c1-3.92-.11-6.87-1.46-9.76l.09-.25c.59.49,1.15.93,1.67,1.31a7.2,7.2,0,0,0,3.62,1.7A5.81,5.81,0,0,0,36.37,28c.6-.43,1.17-.89,1.68-1.33-1.19,2.15-2,2.81-4.07,4.43Zm-13.1,9.28c-.07-.5-.11-1.42-.16-2.32-.18-3.78-.49-10.13-2.81-14.45-.6-1.12-3.31-3.78-3.68-4.64a.93.93,0,0,1,.16-.27,6,6,0,0,1,1.09.74,19.34,19.34,0,0,0,1.92,1.37c3.09,1.9,6.18,2,8.27.26,1.77-1.45,3-2.33,3.77-7,.08-.53.15-1.06.21-1.61l.08,1.28a15.34,15.34,0,0,1-2.12,8.91,29.16,29.16,0,0,0-2.11,4.9c-1.18,3.75-1.24,8.46-1.48,12.88C23,40.32,21.91,40.32,20.88,40.36Zm-9-8.64L11,31.08C9,29.46,8.14,28.8,7,26.65c.51.44,1.08.9,1.68,1.33a5.81,5.81,0,0,0,3.8,1.45,7.2,7.2,0,0,0,3.62-1.7c.51-.37,1.06-.8,1.64-1.29l.1.28c-1.34,2.87-2.41,5.79-1.44,9.71a.43.43,0,0,0,0,0l1.39,4.18c-.53.07-1.06.16-1.58.26C15.37,37.58,14.45,33.81,11.84,31.72Zm7.55,6.39a54.34,54.34,0,0,0-1.05-9.35,11.27,11.27,0,0,0-.71,7.33L19.1,40.5l.45,0c-.06-.5-.1-1.23-.16-2.34Zm7.18-9.54c-.92,3.43-1,7.85-1.23,11.88a5.29,5.29,0,0,1,.56,0l1.47-4.41a11.33,11.33,0,0,0-.8-7.52Zm13-4a1.07,1.07,0,0,0-1.36.08,26.84,26.84,0,0,1-2.66,2.2c-2.45,1.77-3.4,1.55-5.86-.24-.59-.43-1.22-.94-1.9-1.51.32-.7.64-1.33,1-1.95a16.54,16.54,0,0,0,2.27-9.55c0-1.24-.11-2.51-.78-3.08a1.14,1.14,0,0,0-1.87.78c-.06.84-.16,1.66-.28,2.45-.67,4.26-1.65,4.86-3.31,6.23s-4.14,1.22-6.72-.37a20.59,20.59,0,0,1-1.81-1.28c-.88-.69-1.52-1.19-2.25-1a1.83,1.83,0,0,0-1.1,1.18c-.3.73.35,1.57,2.16,3.62a16.75,16.75,0,0,1,1.64,2c.15.29.3.6.44.91-.68.58-1.32,1.09-1.91,1.52-2.46,1.79-3.41,2-5.87.24a29.4,29.4,0,0,1-2.66-2.2,1.05,1.05,0,0,0-1.66,1.24,13.87,13.87,0,0,0,5.12,6.19l.8.64c2.26,1.8,3.12,5.32,3.87,8.44a27.71,27.71,0,0,0-5.64,2,.66.66,0,1,0,.58,1.19A29.24,29.24,0,0,1,22.5,41.66,29.24,29.24,0,0,1,35.19,44.4a.66.66,0,1,0,.58-1.19,27.71,27.71,0,0,0-5.64-2c.75-3.12,1.61-6.64,3.87-8.44l.8-.64a13.93,13.93,0,0,0,5.12-6.19,1.06,1.06,0,0,0-.31-1.32ZM21.92,15.23a1.95,1.95,0,1,0,1.95,1.94A2,2,0,0,0,21.92,15.23Zm0,5.22a3.28,3.28,0,1,0-3.28-3.28A3.28,3.28,0,0,0,21.92,20.45Z"/></svg>