<svg id="Layer_1" data-name="Layer 1" xmlns="http://www.w3.org/2000/svg" viewBox="0 0 45 45"><path d="M19,35.79h1.4v1.39H19Z"/><path d="M24.6,35.79H26v1.39H24.6Z"/><path d="M21.8,35.79h1.4v1.39H21.8Z"/><path d="M9.21,31.59h7v-7h-7ZM10.61,26h4.2v4.19h-4.2Z"/><path d="M9.21,19h7v1.4h-7Z"/><path d="M9.21,21.8h4.2v1.4H9.21Z"/><path d="M14.81,21.8h1.4v1.4h-1.4Z"/><path d="M35.79,27.39h-8.4v4.2h8.4Zm-1.4,2.8h-5.6v-1.4h5.6Z"/><path d="M34.39,24.6h1.4V26h-1.4Z"/><path d="M27.39,24.6H33V26h-5.6Z"/><path d="M27.39,21.8h8.4v1.4h-8.4Z"/><path d="M30.19,19h5.6v1.4h-5.6Z"/><path d="M8.69,9.06l1.36.31A5.57,5.57,0,0,1,15.51,5V3.62A7,7,0,0,0,8.69,9.06Z"/><path d="M44.18,14.11a6.29,6.29,0,0,0-10-5.06,7.64,7.64,0,0,0-6.77-4A7.74,7.74,0,0,0,24,5.8,9.77,9.77,0,0,0,6.11,7.9a6.29,6.29,0,0,0,.31,12.46V36.48A3.5,3.5,0,0,0,9.91,40h5.6v2.8h-2.8v1.4H32.29v-1.4h-2.8V40h5.6a3.5,3.5,0,0,0,3.49-3.5V20.36A6.31,6.31,0,0,0,44.18,14.11Zm-25.06,6.7A1.38,1.38,0,0,1,19.7,22V23.2a2.8,2.8,0,1,0,5.6,0V22a1.37,1.37,0,0,1,.6-1.15,6.22,6.22,0,0,0,2.52-3.19h6.67a2.1,2.1,0,0,1,2.09,2.09V33H7.82V19.7a2.1,2.1,0,0,1,2.09-2.09h6.67A6.22,6.22,0,0,0,19.12,20.81ZM23.9,23.2a1.4,1.4,0,0,1-2.8,0Zm-2.1-7.69a.7.7,0,1,1,.7.7A.7.7,0,0,1,21.8,15.51Zm2.11,6.29H23.2V17.48a2.1,2.1,0,1,0-1.4,0V21.8h-.71a2.73,2.73,0,0,0-1.22-2.17,4.85,4.85,0,0,1-2.22-4.77,4.9,4.9,0,0,1,4.28-4.21,3.69,3.69,0,0,1,.58,0,4.81,4.81,0,0,1,3.25,1.25,4.89,4.89,0,0,1-.62,7.76A2.73,2.73,0,0,0,23.91,21.8Zm4.18,21H16.91V40H28.09Zm7-4.2H9.91a2.1,2.1,0,0,1-2.09-2.1V34.39H37.18v2.09A2.1,2.1,0,0,1,35.09,38.58ZM38.5,19a3.5,3.5,0,0,0-3.41-2.75H28.75c0-.23,0-.47,0-.7a6.29,6.29,0,0,0-12.53-.83,6,6,0,0,0,0,1.53H9.91A3.5,3.5,0,0,0,6.5,19a4.89,4.89,0,0,1,.22-9.73l.51,0,.12-.49a8.34,8.34,0,0,1,8.16-6.48A8.43,8.43,0,0,1,23.1,7.06l.33.71.67-.41a6.26,6.26,0,0,1,9,2.69,6.26,6.26,0,0,0-1.49,4.06H33A4.9,4.9,0,1,1,38.5,19Z"/></svg>