<svg id="Layer_1" data-name="Layer 1" xmlns="http://www.w3.org/2000/svg" viewBox="0 0 45 45"><path d="M39.89,23.13a2.16,2.16,0,1,0,0-1h-6.7V17.37h4.15a.51.51,0,0,0,.44-.26l1.69-2.91a2.35,2.35,0,0,0,.6.08,2.15,2.15,0,1,0-1.5-.6L37,16.34H33.2V14.85a3,3,0,0,0-3.05-3H28.66V8l2.66-1.53a2.16,2.16,0,1,0-.6-1.5,2.35,2.35,0,0,0,.08.6L27.89,7.22a.51.51,0,0,0-.26.44v4.15h-4.5V5.11a2.16,2.16,0,1,0-1,0v6.7H17.37V7.66a.51.51,0,0,0-.26-.44L14.2,5.53a2.35,2.35,0,0,0,.08-.6,2.15,2.15,0,1,0-.6,1.5L16.34,8v3.85H14.85a3,3,0,0,0-3,3v1.49H8L6.43,13.68a2.16,2.16,0,1,0-1.5.6,2.49,2.49,0,0,0,.61-.08l1.68,2.91a.51.51,0,0,0,.44.26h4.15v4.5H5.11a2.16,2.16,0,1,0,0,1h6.7v4.73H7.66a.51.51,0,0,0-.44.26L5.53,30.8a2.35,2.35,0,0,0-.6-.08,2.15,2.15,0,1,0,1.5.6L8,28.66H11.8v1.49a3,3,0,0,0,3,3h1.49V37l-2.66,1.53a2.16,2.16,0,1,0,.6,1.5,2.35,2.35,0,0,0-.08-.6l2.91-1.69a.51.51,0,0,0,.26-.44V33.19h4.5v6.7a2.16,2.16,0,1,0,1,0v-6.7h4.73v4.15a.51.51,0,0,0,.26.44l2.91,1.69a2.35,2.35,0,0,0-.08.6,2.15,2.15,0,1,0,.6-1.5L28.66,37V33.19h1.49a3,3,0,0,0,3-3V28.66H37l1.53,2.66a2.16,2.16,0,1,0,1.5-.6,2.35,2.35,0,0,0-.6.08l-1.69-2.91a.51.51,0,0,0-.44-.26H33.19v-4.5ZM42,21.49a1.13,1.13,0,1,1-1.13,1.13A1.13,1.13,0,0,1,42,21.49ZM40.07,11a1.13,1.13,0,1,1-1.13,1.13A1.14,1.14,0,0,1,40.07,11ZM32.88,3.8a1.13,1.13,0,1,1-1.13,1.13A1.14,1.14,0,0,1,32.88,3.8ZM12.12,6.06a1.13,1.13,0,1,1,1.13-1.13A1.13,1.13,0,0,1,12.12,6.06ZM4.93,13.25a1.13,1.13,0,1,1,1.13-1.13A1.14,1.14,0,0,1,4.93,13.25ZM3,23.51a1.13,1.13,0,1,1,1.13-1.13A1.13,1.13,0,0,1,3,23.51ZM4.93,34a1.13,1.13,0,1,1,1.13-1.13A1.14,1.14,0,0,1,4.93,34Zm7.19,7.19a1.13,1.13,0,1,1,1.13-1.13A1.14,1.14,0,0,1,12.12,41.2Zm20.76-2.26a1.13,1.13,0,1,1-1.13,1.13A1.13,1.13,0,0,1,32.88,38.94ZM21.49,3a1.13,1.13,0,1,1,1.13,1.13A1.13,1.13,0,0,1,21.49,3Zm2,39a1.13,1.13,0,1,1-1.13-1.13A1.13,1.13,0,0,1,23.51,42Zm8.65-11.84a2,2,0,0,1-2,2H14.85a2,2,0,0,1-2-2V14.85a2,2,0,0,1,2-2h15.3a2,2,0,0,1,2,2Zm7.91,1.6a1.13,1.13,0,1,1-1.13,1.13A1.14,1.14,0,0,1,40.07,31.75Zm-12.75-12H27V19a4.45,4.45,0,0,0-8.9,0v.79h-.37a1.85,1.85,0,0,0-1.85,1.85v7a1.85,1.85,0,0,0,1.85,1.85h9.64a1.85,1.85,0,0,0,1.85-1.85v-7A1.85,1.85,0,0,0,27.32,19.79ZM19.08,19a3.42,3.42,0,0,1,6.84,0v.79H24.63V19a2.13,2.13,0,0,0-4.26,0v.79H19.08Zm4.52,0v.79H21.4V19a1.1,1.1,0,0,1,2.2,0Zm4.54,9.6a.82.82,0,0,1-.82.82H17.68a.82.82,0,0,1-.82-.82v-7a.82.82,0,0,1,.82-.82h9.64a.82.82,0,0,1,.82.82ZM22.5,22.37A1.8,1.8,0,0,0,22,25.89v1.46a.52.52,0,0,0,1,0V25.89a1.8,1.8,0,0,0-.52-3.52Zm0,2.57h0a.77.77,0,1,1,.77-.77A.77.77,0,0,1,22.5,24.94Z"/></svg>