<svg id="Layer_1" data-name="Layer 1" xmlns="http://www.w3.org/2000/svg" viewBox="0 0 45 45"><path d="M23,26.73H10a9.51,9.51,0,0,0-9.5,9.49v6.89a.61.61,0,0,0,1.21,0V36.22a8.3,8.3,0,0,1,7.89-8.28l2.76,6.62s0,0,0,0L16,43.34a.6.6,0,0,0,1.11,0L23.49,28a8.29,8.29,0,0,1,7.8,8.27v6.89a.6.6,0,0,0,1.2,0V36.22A9.5,9.5,0,0,0,23,26.73Zm-2.83,6.06L19.42,31l1-3.05H22.2Zm-1.83-2.38H14.73l-.81-2.48h5.22ZM13.65,31l-.76,1.81-2-4.86h1.79Zm2.88,10.56-3-7.19,1.15-2.74h3.68l1.15,2.74ZM8.05,39v4.07a.61.61,0,0,1-1.21,0V39a.61.61,0,0,1,1.21,0Zm18.07,0v4.07a.6.6,0,0,1-1.2,0V39a.6.6,0,0,1,1.2,0Zm-21-23.16,2.22.79a5.49,5.49,0,0,0,.21.51l-1,2.12a.59.59,0,0,0,0,.6,12.1,12.1,0,0,0,3.15,3.15.61.61,0,0,0,.6.05l2.13-1a4.4,4.4,0,0,0,.5.21l.79,2.22a.6.6,0,0,0,.45.39,12,12,0,0,0,2.23.21,11.87,11.87,0,0,0,2.23-.21.63.63,0,0,0,.46-.39L20,22.29a5.49,5.49,0,0,0,.51-.21l2.12,1a.61.61,0,0,0,.6-.05,11.8,11.8,0,0,0,3.15-3.15.61.61,0,0,0,.05-.6l-1-2.12.21-.51,2.21-.79a.59.59,0,0,0,.4-.45,12.53,12.53,0,0,0,0-4.46.62.62,0,0,0-.4-.46l-2.21-.78-.21-.51,1-2.12a.61.61,0,0,0-.05-.6,11.8,11.8,0,0,0-3.15-3.15.61.61,0,0,0-.6-.05l-2.12,1A5.49,5.49,0,0,0,20,4.11l-.78-2.22a.63.63,0,0,0-.46-.39,12,12,0,0,0-4.46,0,.6.6,0,0,0-.45.39L13,4.11a4.4,4.4,0,0,0-.5.21l-2.13-1a.61.61,0,0,0-.6.05A12.1,12.1,0,0,0,6.63,6.5a.59.59,0,0,0,0,.6l1,2.12a5.49,5.49,0,0,0-.21.51l-2.22.78a.63.63,0,0,0-.39.46,11.95,11.95,0,0,0,0,4.46.6.6,0,0,0,.39.45Zm.74-4.35,2.15-.76a.62.62,0,0,0,.37-.37,6.61,6.61,0,0,1,.38-.92.59.59,0,0,0,0-.52l-1-2.06a10.52,10.52,0,0,1,2.35-2.36l2.06,1a.65.65,0,0,0,.53,0c.3-.14.6-.27.91-.38a.58.58,0,0,0,.37-.36l.77-2.16a10.94,10.94,0,0,1,3.33,0l.76,2.16a.6.6,0,0,0,.37.36c.31.11.62.24.92.38a.63.63,0,0,0,.52,0l2.06-1A10.57,10.57,0,0,1,25.14,6.9L24.16,9a.59.59,0,0,0,0,.52c.14.3.27.61.38.92a.59.59,0,0,0,.37.37l2.15.76a10.35,10.35,0,0,1,.13,1.67,10.23,10.23,0,0,1-.13,1.66l-2.15.77a.57.57,0,0,0-.37.37c-.11.31-.24.62-.38.92a.59.59,0,0,0,0,.52l1,2.06a10.57,10.57,0,0,1-2.36,2.36l-2.06-1a.59.59,0,0,0-.52,0c-.3.14-.61.27-.92.38a.6.6,0,0,0-.37.36l-.76,2.16a11,11,0,0,1-3.34,0l-.76-2.16a.6.6,0,0,0-.37-.36c-.31-.11-.61-.24-.91-.38a.62.62,0,0,0-.53,0l-2.06,1A10.52,10.52,0,0,1,7.83,19.5l1-2.06a.59.59,0,0,0,0-.52A6.61,6.61,0,0,1,8.43,16a.59.59,0,0,0-.37-.37l-2.15-.77a10.23,10.23,0,0,1-.13-1.66A10.35,10.35,0,0,1,5.91,11.53Zm10.57,8.41A6.74,6.74,0,1,0,9.74,13.2a6.74,6.74,0,0,0,6.74,6.74Zm0-12.28a5.54,5.54,0,1,1-5.54,5.54,5.55,5.55,0,0,1,5.54-5.54Zm-2.83,8.53a.6.6,0,0,0,.22.67.57.57,0,0,0,.35.12.6.6,0,0,0,.36-.12l1.9-1.39,1.91,1.39a.59.59,0,0,0,.71,0,.6.6,0,0,0,.22-.67L18.58,14l1.91-1.38a.62.62,0,0,0,.22-.68.6.6,0,0,0-.57-.42H17.78l-.72-2.25a.6.6,0,0,0-.58-.41.59.59,0,0,0-.57.41l-.72,2.25H12.82a.6.6,0,0,0-.57.42.62.62,0,0,0,.22.68L14.38,14Zm2-3.51h0a.59.59,0,0,0,.58-.41l.28-.89.29.89a.59.59,0,0,0,.57.41h.93l-.75.55a.6.6,0,0,0-.22.67l.29.89-.75-.55a.62.62,0,0,0-.71,0l-.76.55.29-.89a.57.57,0,0,0-.22-.67l-.75-.55Zm22.1-2.53a6.74,6.74,0,0,0-6.8,6.67,5.57,5.57,0,0,0,1.54,4.08,2.5,2.5,0,0,1,.83,1.75A1.3,1.3,0,0,0,34,23.82v1a1.44,1.44,0,0,0,1.39,1.41,2.3,2.3,0,0,0,4.59,0,1.44,1.44,0,0,0,1.39-1.41v-1a1.3,1.3,0,0,0,.75-1.17A2.5,2.5,0,0,1,43,20.9a5.57,5.57,0,0,0,1.54-4.08,6.74,6.74,0,0,0-6.81-6.67Zm0,17a1,1,0,0,1-1.08-.9h2.17A1,1,0,0,1,37.72,27.17Zm2.22-2.1H35.51a.25.25,0,0,1-.27-.21v-.92h5v.92A.25.25,0,0,1,39.94,25.07Zm-2.22-7A1.13,1.13,0,1,1,38.85,17,1.13,1.13,0,0,1,37.72,18.08Zm4.34,2.05A3.67,3.67,0,0,0,41,22.65a.1.1,0,0,1-.1.09H38.33V19.2a2.33,2.33,0,1,0-1.21,0v3.54H34.6a.1.1,0,0,1-.1-.09,3.67,3.67,0,0,0-1.11-2.52,4.43,4.43,0,0,1-1.26-3.31,5.6,5.6,0,0,1,11.19,0,4.43,4.43,0,0,1-1.26,3.31Zm-3.73,10v1.4a.61.61,0,0,1-1.21,0v-1.4a.61.61,0,0,1,1.21,0Zm0,4.09v1.4a.61.61,0,0,1-1.21,0v-1.4a.61.61,0,1,1,1.21,0Zm0,4.08v1.4a.61.61,0,1,1-1.21,0v-1.4a.61.61,0,0,1,1.21,0Zm-2.45,1.4a.6.6,0,0,1-.6.61h-1.4a.61.61,0,1,1,0-1.21h1.4A.6.6,0,0,1,35.88,39.73ZM27.55,4.31a.6.6,0,0,1,.6-.6h1.4a.6.6,0,0,1,0,1.2h-1.4A.6.6,0,0,1,27.55,4.31Zm4.09,0a.6.6,0,0,1,.6-.6h1.4a.6.6,0,1,1,0,1.2h-1.4A.6.6,0,0,1,31.64,4.31Zm4.08,0a.6.6,0,0,1,.6-.6h1.4a.6.6,0,1,1,0,1.2h-1.4A.6.6,0,0,1,35.72,4.31Zm2.61,2.45v1.4a.61.61,0,0,1-1.21,0V6.76a.61.61,0,1,1,1.21,0Z"/></svg>