<svg id="Layer_1" data-name="Layer 1" xmlns="http://www.w3.org/2000/svg" viewBox="0 0 45 45"><rect x="5.91" y="13.29" width="9.68" height="1.3"/><rect x="5.91" y="16.06" width="6.91" height="1.3"/><rect x="5.91" y="20.21" width="9.68" height="1.3"/><rect x="5.91" y="22.97" width="6.91" height="1.3"/><rect x="5.91" y="27.12" width="9.68" height="1.3"/><rect x="5.91" y="29.88" width="5.53" height="1.3"/><path d="M43.86,36.94l-7.37-7.37L35.1,31,32.19,28a8.94,8.94,0,0,0-5.63-14.72V3.62H6.29L.38,9.48V40.85H26.56v-7.6H25.27v6.31H1.68V10.44H7.21V4.91H25.27v8.34a8.94,8.94,0,1,0,6,15.7l2.92,2.92-1.38,1.38,7.37,7.37a2.58,2.58,0,0,0,1.84.76,2.6,2.6,0,0,0,1.84-4.44ZM5.91,9.15H2.59L5.91,5.79ZM25.43,29.84a7.65,7.65,0,1,1,7.64-7.65A7.66,7.66,0,0,1,25.43,29.84ZM42.94,39.7a1.29,1.29,0,0,1-1.85,0l-6.45-6.45,1.85-1.85,6.45,6.46A1.3,1.3,0,0,1,42.94,39.7Z"/><path d="M25.61,18.78h-.36c-3.22.1-5.73,2.86-5.84,3l1,.87a9.4,9.4,0,0,1,1.8-1.48,3.29,3.29,0,0,0-.17,1,3.42,3.42,0,0,0,6.83,0,3.59,3.59,0,0,0-.16-1,9.75,9.75,0,0,1,1.79,1.47l1-.86C31.33,21.64,28.83,18.88,25.61,18.78Zm-.18,5.53a2.12,2.12,0,0,1-.12-4.23h.23a2.12,2.12,0,0,1-.11,4.23Z"/></svg>