<svg id="Layer_1" data-name="Layer 1" xmlns="http://www.w3.org/2000/svg" viewBox="0 0 45 45"><path d="M7.76,14.78H3.54V19H7.76ZM6.35,17.59H5V16.18h1.4Z"/><path d="M13.37,14.78H9.16V19h4.21ZM12,17.59H10.56V16.18H12Z"/><path d="M19,14.78H14.78V19H19Zm-1.4,2.81H16.18V16.18h1.41Z"/><path d="M3.54,41.46H19V30.22H3.54ZM5,31.63H17.59v8.42H5Z"/><path d="M9.16,37l-.91-.9-1,1,1.9,1.9,5.41-5.41-1-1Z"/><path d="M3.54,23.2H5v1.41H3.54Z"/><path d="M6.35,23.2h9.83v1.41H6.35Z"/><path d="M3.54,26H16.18v1.4H3.54Z"/><path d="M33,41.46h4.21V37.24H33Zm1.41-2.81h1.4v1.4h-1.4Z"/><path d="M27.41,41.46h4.22V37.24H27.41Zm1.41-2.81h1.4v1.4h-1.4Z"/><path d="M21.8,41.46H26V37.24H21.8Zm1.4-2.81h1.41v1.4H23.2Z"/><path d="M42.4,19.26a11.7,11.7,0,0,0-1.07-2.59l.87-1.76L39.69,12.4a8.91,8.91,0,0,0,.36-2.54,9.13,9.13,0,1,0-18,2.11H2.84a2.1,2.1,0,0,0-2.1,2.1V42.16a2.1,2.1,0,0,0,2.1,2.1H38a2.1,2.1,0,0,0,2.1-2.1V32.24l2.15-2.15-.87-1.76a11.7,11.7,0,0,0,1.07-2.59l1.86-.63V19.89ZM30.93,2.14a7.74,7.74,0,0,1,5.46,13.2l-.26.26A5.73,5.73,0,0,0,34.48,19H33V10.56h.7a2.11,2.11,0,1,0-2.1-2.1v.7H30.22v-.7a2.11,2.11,0,1,0-2.1,2.1h.7V19H27.37a5.76,5.76,0,0,0-1.65-3.39l-.26-.26a7.74,7.74,0,0,1,5.47-13.2ZM25.27,17.26a4.34,4.34,0,0,1,.7,1.87,2.1,2.1,0,0,0,0,3.94v.83a4.92,4.92,0,1,0,9.83,0v-.83a2.1,2.1,0,0,0,0-3.94,4.34,4.34,0,0,1,.7-1.87,7.73,7.73,0,1,1-11.31,0Zm3.55-8.1h-.7a.7.7,0,1,1,.7-.7ZM31.63,19H30.22V10.56h1.41Zm3.51,1.4a.71.71,0,0,1,0,1.41H26.71a.71.71,0,0,1,0-1.41ZM27.41,23.2h7v.7a3.52,3.52,0,0,1-7,0ZM33,9.16v-.7a.71.71,0,1,1,.7.7ZM2.84,13.37H21.19l-1.54,1.54.87,1.76a11.7,11.7,0,0,0-1.07,2.59l-1.86.63v.5H2.14V14.07a.7.7,0,0,1,.7-.7ZM38.65,42.16a.7.7,0,0,1-.7.7H2.84a.7.7,0,0,1-.7-.7V21.8H17.59v3.31l1.86.63a11.7,11.7,0,0,0,1.07,2.59l-.87,1.76,3.69,3.69,1.76-.87A12.51,12.51,0,0,0,27.69,34l.62,1.86h5.23L34.16,34a12,12,0,0,0,2.59-1.08l1.76.88.14-.14ZM42.86,24.1l-1.63.55-.09.37a10.48,10.48,0,0,1-1.21,2.91l-.2.33.77,1.55-2.27,2.26-1.54-.76-.33.2a10.58,10.58,0,0,1-2.91,1.2l-.37.1-.55,1.63H29.32l-.55-1.63-.37-.1a10.71,10.71,0,0,1-2.91-1.2l-.33-.2-1.54.76-2.27-2.26.77-1.55-.2-.33A10.48,10.48,0,0,1,20.71,25l-.09-.37L19,24.1V20.9l1.63-.55.09-.38a10.25,10.25,0,0,1,1.21-2.9l.2-.33-.77-1.55,1.36-1.35a9,9,0,0,0,1.64,2.36,9.13,9.13,0,1,0,13.15,0,9,9,0,0,0,1.64-2.36l1.36,1.35-.77,1.55.2.33A10.55,10.55,0,0,1,41.14,20l.09.38,1.63.55Z"/></svg>