<svg id="Layer_1" data-name="Layer 1" xmlns="http://www.w3.org/2000/svg" viewBox="0 0 45 45"><path d="M5.49,21.8a.41.41,0,0,0,.23.07.45.45,0,0,0,.39-.23A4.48,4.48,0,0,1,10,19.41H10l3.19,2.37a.46.46,0,0,0,.27.09.46.46,0,0,0,.27-.82L10.3,18.48l1.36-1.35,4.11,4.1h0l.5.5a.45.45,0,0,0,.63-.63l-.18-.18,3.79-3.79,1.36,1.35-3.46,2.57a.45.45,0,0,0-.1.63.47.47,0,0,0,.36.19.44.44,0,0,0,.27-.09l3.19-2.37h.07a4.45,4.45,0,0,1,3.86,2.23.48.48,0,0,0,.39.23.39.39,0,0,0,.23-.07.44.44,0,0,0,.16-.61A5.39,5.39,0,0,0,23,18.57h0a.5.5,0,0,0-.14-.36l-2-2a.46.46,0,0,0-.32-.13.44.44,0,0,0-.31.13l-1.15,1.15-.16-1.13a5.64,5.64,0,0,0,2.84-4.89h0V7.08A3.16,3.16,0,0,0,22.63,6c.62-1.23.41-2.82-.61-4.72a.44.44,0,0,0-.3-.23.48.48,0,0,0-.37.09,11.46,11.46,0,0,1-6.64,2,12.46,12.46,0,0,1-2.35-.22,2.19,2.19,0,0,0-.36,0A2.48,2.48,0,0,0,9.75,5.45a2.54,2.54,0,0,0,.69,1.73V11.3h0a5.66,5.66,0,0,0,2.84,4.89l-.15,1.13L12,16.17a.46.46,0,0,0-.64,0l-2,2a.49.49,0,0,0-.13.36h0a5.41,5.41,0,0,0-3.84,2.62A.45.45,0,0,0,5.49,21.8Zm10.6-1.52-2.16-2.16.2-1.53a5.64,5.64,0,0,0,3.91,0l.21,1.53ZM10.65,5.45A1.58,1.58,0,0,1,12,3.81h.19a13.52,13.52,0,0,0,2.52.24,12.53,12.53,0,0,0,6.75-1.91,4,4,0,0,1,.37,3.43,3.23,3.23,0,0,1-2.2,1.49H12.27A1.62,1.62,0,0,1,10.65,5.45Zm.69,5.85h0V7.79a2.41,2.41,0,0,0,.93.18h7.47a5.24,5.24,0,0,0,1.09-.34v3.66h0a4.75,4.75,0,0,1-9.49,0Z"/><path d="M29.4,37.77a.45.45,0,0,0-.45.45.86.86,0,0,1-.86.86h-24a.86.86,0,0,1-.87-.86V22.73a.87.87,0,0,1,.87-.87h.39a.45.45,0,0,0,.45-.45A.45.45,0,0,0,4.48,21H4.09a1.77,1.77,0,0,0-1.77,1.77V38.22A1.76,1.76,0,0,0,4.09,40h9.07l-.63,3.09H10.17a.45.45,0,0,0,0,.9H22a.45.45,0,1,0,0-.9H19.65L19,40h9.08a1.76,1.76,0,0,0,1.76-1.76A.45.45,0,0,0,29.4,37.77Zm-15.95,5.3L14.08,40h4l.64,3.09Z"/><path d="M7.32,21a.45.45,0,0,0-.45.45.45.45,0,0,0,.45.45h4a.45.45,0,0,0,.45-.45A.46.46,0,0,0,11.3,21Z"/><path d="M25,21H20.36a.45.45,0,0,0-.45.45.45.45,0,0,0,.45.45H25a.45.45,0,0,0,.45-.45A.45.45,0,0,0,25,21Z"/><path d="M29.85,24.21V22.73a.45.45,0,0,0-.9,0v1.48a.45.45,0,0,0,.9,0Z"/><path d="M16.59,27.33a3.15,3.15,0,1,0,3.14,3.14A3.15,3.15,0,0,0,16.59,27.33Zm0,5.39a2.25,2.25,0,1,1,2.24-2.25A2.25,2.25,0,0,1,16.59,32.72Z"/><path d="M42,7.59a2.08,2.08,0,0,0-1.36-.52H26.87a2.05,2.05,0,0,0-2.05,2V17.2a2.05,2.05,0,0,0,2.05,2.05h.67v3.34l0,0a.09.09,0,0,0,0,.05l0,0,0,0,.06.07h0l.07.06,0,0,0,0h.05l0,0h.17l0,0h.05l0,0,0,0,.06-.06h0l3.58-3.57h8.75a2.05,2.05,0,0,0,2-2.05V9.12A2,2,0,0,0,42,7.59Zm-.21,9.61h0a1.16,1.16,0,0,1-1.15,1.15H31.52l-.05,0h0l-.07.06-2.93,2.94V18.8h0a.45.45,0,0,0-.45-.45H26.87a1.15,1.15,0,0,1-1.15-1.15V9.12A1.15,1.15,0,0,1,26.87,8H40.63a1.18,1.18,0,0,1,.76.29,1.14,1.14,0,0,1,.39.86V17.2Z"/><path d="M40.63,25.06H40V21.81a.28.28,0,0,0,0-.09.06.06,0,0,0,0,0v0l0-.05s0,0,0,0a.8.8,0,0,0-.13-.13l0,0,0,0h-.34l0,0,0,0-.07.06-3.57,3.57H26.87a2.05,2.05,0,0,0-2.05,2.05V35.2a2.06,2.06,0,0,0,2.05,2H40.63a2.05,2.05,0,0,0,2-2V27.11A2.05,2.05,0,0,0,40.63,25.06ZM41.78,35.2h0a1.15,1.15,0,0,1-1.15,1.14H26.87a1.16,1.16,0,0,1-1.15-1.14V27.11A1.15,1.15,0,0,1,26.87,26h9l0,0h0l.05,0h0l.07-.06,2.94-2.94v2.62h0a.45.45,0,0,0,.45.45h1.12a1.16,1.16,0,0,1,1.15,1.15V35.2Z"/></svg>