<svg id="Layer_1" data-name="Layer 1" xmlns="http://www.w3.org/2000/svg" viewBox="0 0 45 45"><g id="support-setting-call-headphone-help"><path d="M43.88,31.91a2.93,2.93,0,0,0-4-1.07l-7.11,4.1a2.93,2.93,0,0,0-1.65-1.19L20.25,30.84a5.16,5.16,0,0,0-2.56,0l-3.83,1V30.52a.73.73,0,0,0-.73-.73H7.3a.73.73,0,0,0-.73.73v.73H1.46A.73.73,0,0,0,.74,32V42.19a.72.72,0,0,0,.72.73H6.57v.73a.73.73,0,0,0,.73.73h5.83a.73.73,0,0,0,.73-.73v-1l.94.47a5.17,5.17,0,0,0,2.29.54H28A5.1,5.1,0,0,0,30.56,43l12.25-7.08A2.92,2.92,0,0,0,43.88,31.91ZM6.57,41.46H2.19V32.71H6.57Zm5.83,1.46H8V31.25H12.4Zm29.68-8.29L29.83,41.7a3.65,3.65,0,0,1-1.82.49H17.09a3.72,3.72,0,0,1-1.64-.38L13.86,41V33.28l4.18-1a3.55,3.55,0,0,1,1.83,0l10.89,2.92a1.45,1.45,0,0,1,1,1.77,1.49,1.49,0,0,1-.69.9A1.44,1.44,0,0,1,30,38l-8.7-2.33a.74.74,0,0,0-.38,1.42l8.7,2.32a2.91,2.91,0,0,0,2.21-.29,2.87,2.87,0,0,0,1.37-1.77,3,3,0,0,0,.08-1l7.34-4.23a1.47,1.47,0,0,1,2,.53A1.46,1.46,0,0,1,42.08,34.63Z"/><path d="M10.22,42.19a.73.73,0,0,0,.73-.73v-.73a.73.73,0,0,0-1.46,0v.73A.72.72,0,0,0,10.22,42.19Z"/><path d="M32.83,11.56H30.09L30,11.25,31.9,9.32a.75.75,0,0,0,0-1L28.81,5.19a.75.75,0,0,0-1,0L25.84,7.13,25.53,7V4.27a.72.72,0,0,0-.73-.73H20.43a.72.72,0,0,0-.73.73V7l-.31.13L17.46,5.19a.75.75,0,0,0-1,0L13.33,8.28a.75.75,0,0,0,0,1l1.94,1.93-.13.31H12.4a.73.73,0,0,0-.72.73v4.38a.72.72,0,0,0,.72.72h2.74l.13.31-1.94,1.93a.75.75,0,0,0,0,1l3.09,3.09a.73.73,0,0,0,.52.21.78.78,0,0,0,.52-.21l1.93-1.94.31.13v2.74a.73.73,0,0,0,.73.73H24.8a.73.73,0,0,0,.73-.73V22l.31-.13,1.93,1.94a.77.77,0,0,0,1,0l3.09-3.09a.75.75,0,0,0,0-1L30,17.7l.13-.31h2.74a.73.73,0,0,0,.73-.72V12.29A.73.73,0,0,0,32.83,11.56Zm-.73,4.38H29.57a.73.73,0,0,0-.69.5,5.78,5.78,0,0,1-.44,1.06.71.71,0,0,0,.12.86l1.79,1.79-2.06,2.07-1.79-1.8a.71.71,0,0,0-.86-.12,6.08,6.08,0,0,1-1.06.44.74.74,0,0,0-.51.7V24H21.16V21.44a.74.74,0,0,0-.51-.7,5.69,5.69,0,0,1-1-.44.73.73,0,0,0-.87.12l-1.79,1.8-2.06-2.07,1.79-1.79a.73.73,0,0,0,.13-.86,5.19,5.19,0,0,1-.45-1.06.73.73,0,0,0-.69-.5H13.13V13h2.53a.73.73,0,0,0,.69-.5,5,5,0,0,1,.45-1.06.74.74,0,0,0-.13-.87L14.88,8.8l2.06-2.06,1.79,1.79a.74.74,0,0,0,.87.13,5.11,5.11,0,0,1,1-.45.74.74,0,0,0,.51-.69V5h2.91V7.52a.74.74,0,0,0,.51.69,5.44,5.44,0,0,1,1.06.45.73.73,0,0,0,.86-.13l1.79-1.79L30.35,8.8l-1.79,1.79a.73.73,0,0,0-.12.87,5.5,5.5,0,0,1,.44,1.06.73.73,0,0,0,.69.5H32.1Z"/><path d="M27,14.48a4.38,4.38,0,1,0-4.37,4.37A4.38,4.38,0,0,0,27,14.48Zm-7.29,0a2.92,2.92,0,1,1,2.92,2.91A2.92,2.92,0,0,1,19.7,14.48Z"/><path d="M39.39,15.94H37.93a15.32,15.32,0,1,0-30.63,0H5.84a4.38,4.38,0,1,0,0,8.75H9.49a.73.73,0,0,0,.73-.73V16.67a.73.73,0,0,0-.73-.73H8.76a13.86,13.86,0,1,1,27.71,0h-.73a.73.73,0,0,0-.73.73V24a.73.73,0,0,0,.73.73h.73v2.19a.73.73,0,0,1-.73.73H30.51a2.19,2.19,0,0,0-2.06-1.46H27a2.19,2.19,0,1,0,0,4.37h1.46a2.2,2.2,0,0,0,2.06-1.46h5.23a2.19,2.19,0,0,0,2.19-2.18V24.69h1.46a4.38,4.38,0,1,0,0-8.75ZM5.84,23.23a2.92,2.92,0,0,1,0-5.84Zm2.92,0H7.3V17.39H8.76Zm19.69,5.83H27a.73.73,0,1,1,0-1.45h1.46a.73.73,0,1,1,0,1.45Zm9.48-5.83H36.47V17.39h1.46Zm1.46,0V17.39a2.92,2.92,0,1,1,0,5.84Z"/></g></svg>