<svg id="Layer_1" data-name="Layer 1" xmlns="http://www.w3.org/2000/svg" viewBox="0 0 45 45"><g id="Outsource_Services" data-name="Outsource Services"><path d="M6.45,9.17c3,2.39,2.92,2.55,3.26,2.55a.51.51,0,0,0,.32-.9L7,8.35a.87.87,0,0,0-.78-.18A3.43,3.43,0,0,1,2,5.34L3.39,6.46a.81.81,0,0,0,.66.17l2.24-.39A.81.81,0,0,0,7,5.43l0-2.28a.83.83,0,0,0-.29-.61L5.26,1.41A3.43,3.43,0,0,1,8.84,5a.88.88,0,0,0,.32.74l3.48,2.88a.51.51,0,0,0,.71-.07.51.51,0,0,0-.06-.71L9.85,5A4.44,4.44,0,0,0,4.46.5a.75.75,0,0,0-.32,1.3L5.91,3.26l0,2L4,5.62,2.2,4.16A.74.74,0,0,0,1,4.72,4.45,4.45,0,0,0,6.45,9.17Z"/><path d="M38.74,8.17a.91.91,0,0,0-.78.18l-3,2.47a.51.51,0,0,0,.32.9c.33,0,.21-.08,3.26-2.55A4.45,4.45,0,0,0,44,4.72a.74.74,0,0,0-1.21-.56L41,5.62l-2-.34,0-2L40.86,1.8A.75.75,0,0,0,40.54.5,4.44,4.44,0,0,0,35.15,5L31.71,7.86a.51.51,0,0,0-.06.71.5.5,0,0,0,.71.07l3.48-2.88A.88.88,0,0,0,36.16,5a3.44,3.44,0,0,1,3.58-3.61L38.37,2.54a.83.83,0,0,0-.29.61l0,2.28a.81.81,0,0,0,.68.81L41,6.63a.79.79,0,0,0,.65-.17L43,5.34A3.43,3.43,0,0,1,38.74,8.17Z"/><path d="M12.07,28.42a.51.51,0,0,0,.12-.7,12.32,12.32,0,0,1-2.26-6.65h4.73c0,.23,0,.46,0,.68a.5.5,0,0,0,.5.48.51.51,0,0,0,.51-.53c0-.66,0-1.21,0-1.14,0-6.5,2.7-11.83,6.12-12.32v7.28a.5.5,0,0,0,.5.5.5.5,0,0,0,.51-.5V8.24c3.41.49,6.11,5.82,6.11,12.33,0,.36,0,.72,0,1.07a.51.51,0,1,0,1,.05c0-.2,0-.41,0-.62h4.73a12.24,12.24,0,0,1-2.37,6.81.5.5,0,0,0,.11.7.51.51,0,0,0,.71-.1,13.39,13.39,0,1,0-21.72-.18A.51.51,0,0,0,12.07,28.42Zm22.56-8.36H29.9c-.1-5-1.67-9.17-4-11.32A12.38,12.38,0,0,1,34.63,20.06Zm-16-11.32c-2.33,2.15-3.9,6.35-4,11.32H9.94A12.36,12.36,0,0,1,18.66,8.74Z"/><path d="M30.37,43.43l.47-9a1.24,1.24,0,0,0-1.23-1.31H15.54a1.25,1.25,0,0,0-1.24,1.31l.48,9A1.22,1.22,0,0,0,16,44.6H29.13A1.23,1.23,0,0,0,30.37,43.43Zm-14.58,0-.48-9a.23.23,0,0,1,.23-.23H29.61a.22.22,0,0,1,.22.23l-.47,9a.23.23,0,0,1-.23.21H16A.21.21,0,0,1,15.79,43.38Z"/><path d="M17.72,24.21q.08.54.18,1.08c.1.55.29.82.73.93.49,1.68,2,3.37,3.78,3.37a3.35,3.35,0,0,0,2.07-.74,4.71,4.71,0,0,0,1.87-2.64,1,1,0,0,0,.72-.8c.06-.85.55-1.74-.21-2.23,0-.17,0-.65,0-.88.94-2.15.17-3.41-1.19-3.78a2.51,2.51,0,0,0-1.51-1.37,6,6,0,0,0-5.64,1.92,2.82,2.82,0,0,0-.49,2.9,5.81,5.81,0,0,0,0,1.25A.92.92,0,0,0,17.72,24.21Zm1.54-4.42a5,5,0,0,1,4.65-1.67,1.45,1.45,0,0,1,.89.95.52.52,0,0,0,.45.39,1.29,1.29,0,0,1,.9.54c.41.72-.26,2.07-.24,2a.58.58,0,0,0-.05.59,4.1,4.1,0,0,1,0,.66l0,.19a.51.51,0,0,0,.36.53l.11,0c0,.09,0,.19-.21,1.23a.94.94,0,0,1-.21,0c-.79.12,0,1.19-2,2.77a2,2,0,0,1-.47.3,2,2,0,0,1-2.29-.26,4.34,4.34,0,0,1-1.6-2.49.58.58,0,0,0-.58-.35c0-.12-.18-1-.21-1.24l.09,0a.5.5,0,0,0,.32-.58,4.19,4.19,0,0,1-.09-.7.49.49,0,0,0,.12-.45l-.26-1.14A1.4,1.4,0,0,1,19.26,19.79Z"/><path d="M11.63,39.93h1.68a.51.51,0,0,0,.51-.51.5.5,0,0,0-.51-.5H11.63a.27.27,0,0,1-.26-.32l.94-5.49a4.09,4.09,0,0,1,2.15-2.25l4.1-1.8a.51.51,0,0,0-.4-.93l-4.1,1.8a5.09,5.09,0,0,0-2.71,2.87c0,.08,0-.26-1,5.63A1.28,1.28,0,0,0,11.63,39.93Z"/><path d="M33.26,38.92H31.58a.5.5,0,0,0-.51.5.51.51,0,0,0,.51.51h1.68a1.29,1.29,0,0,0,1.26-1.5c-1-5.92-.94-5.55-1-5.63a5.08,5.08,0,0,0-2.7-2.87l-4.1-1.8a.51.51,0,1,0-.41.93l4.1,1.8a4.09,4.09,0,0,1,2.15,2.25l.94,5.49A.27.27,0,0,1,33.26,38.92Z"/><path d="M25.81,40.39H19.34a.51.51,0,0,0-.51.51.5.5,0,0,0,.51.5h6.47a.5.5,0,0,0,.5-.5A.5.5,0,0,0,25.81,40.39Z"/><path d="M22.57,38.82a1.26,1.26,0,1,0-1.25-1.25A1.26,1.26,0,0,0,22.57,38.82Zm.24-1.25a.24.24,0,1,1-.48,0C22.33,37.43,22.81,37.25,22.81,37.57Z"/><path d="M23.29,30.48l-.71.74-.71-.74a.51.51,0,0,0-.74.7l1.08,1.12a.5.5,0,0,0,.73,0L24,31.18a.51.51,0,1,0-.73-.7Z"/></g></svg>