<svg id="Layer_1" data-name="Layer 1" xmlns="http://www.w3.org/2000/svg" viewBox="0 0 45 45"><path d="M19.69,24.63a.64.64,0,0,0,.64-.64v-5.1a.64.64,0,0,0-.64-.64H18.6a.64.64,0,0,0,0,1.28h.45V24A.64.64,0,0,0,19.69,24.63Z"/><path d="M21,33.12H19.65c.28-.37.65-.88,1.13-1.57a3.73,3.73,0,0,0,.64-1.33.13.13,0,0,0,0-.06l0-.19a.28.28,0,0,0,0-.09,1.95,1.95,0,0,0-3.86-.38.64.64,0,1,0,1.25.25.68.68,0,0,1,.66-.54.66.66,0,0,1,.66.63V30a2.66,2.66,0,0,1-.44.85c-.81,1.16-1.29,1.79-1.55,2.12s-.48.64-.38,1a.69.69,0,0,0,.44.44h0a1.53,1.53,0,0,0,.45,0H21a.64.64,0,0,0,0-1.28Z"/><path d="M19.69,37.88a2,2,0,0,0-1.91,1.57A.64.64,0,1,0,19,39.7a.67.67,0,0,1,1.32.13.67.67,0,0,1-.67.66.64.64,0,0,0-.64.64.64.64,0,0,0,.64.64.67.67,0,1,1-.66.76h0s0-.06,0-.08a.64.64,0,1,0-1.28,0,2.45,2.45,0,0,0,0,.27,1.95,1.95,0,1,0,3.38-1.58,1.93,1.93,0,0,0,.5-1.3A2,2,0,0,0,19.69,37.88Z"/><path d="M24.43,18.89a.65.65,0,0,0,.65.64h9a.64.64,0,0,0,0-1.28h-9A.65.65,0,0,0,24.43,18.89Z"/><path d="M25.08,22H31a.64.64,0,0,0,0-1.28H25.08a.64.64,0,1,0,0,1.28Z"/><path d="M33.35,21.39A.64.64,0,0,0,34,22h5.46a.64.64,0,0,0,.64-.64.64.64,0,0,0-.64-.64H34A.64.64,0,0,0,33.35,21.39Z"/><path d="M38.38,23.89a.64.64,0,0,0-.64-.64H25.08a.64.64,0,1,0,0,1.28H37.74A.64.64,0,0,0,38.38,23.89Z"/><path d="M34.72,28.76a.64.64,0,0,0-.64-.64h-9a.64.64,0,1,0,0,1.28h9A.64.64,0,0,0,34.72,28.76Z"/><path d="M39.45,30.62H33.91a.64.64,0,1,0,0,1.28h5.54a.64.64,0,1,0,0-1.28Z"/><path d="M31,30.62H25.08a.64.64,0,1,0,0,1.28H31a.64.64,0,1,0,0-1.28Z"/><path d="M38.38,33.76a.64.64,0,0,0-.64-.64H25.08a.64.64,0,1,0,0,1.28H37.74A.64.64,0,0,0,38.38,33.76Z"/><path d="M25.08,38a.64.64,0,1,0,0,1.28h7.45a.64.64,0,0,0,.64-.64.64.64,0,0,0-.64-.64Z"/><path d="M39.45,40.49H25.08a.64.64,0,1,0,0,1.28H39.45a.64.64,0,0,0,.64-.64A.64.64,0,0,0,39.45,40.49Z"/><path d="M35.56,43H25.08a.64.64,0,1,0,0,1.28H35.56a.64.64,0,0,0,0-1.28Z"/><path d="M15,20.12a.63.63,0,0,0-.25-.5l-1.22-.91a.64.64,0,0,0-.85.95c-4.42.9-7.79,5.28-7.79,10.53,0,5.91,4.25,10.71,9.47,10.71a.64.64,0,0,0,0-1.28c-4.51,0-8.19-4.23-8.19-9.43,0-4.52,2.79-8.32,6.5-9.21a.65.65,0,0,0,.14.67.68.68,0,0,0,.46.19.66.66,0,0,0,.45-.18l1.09-1.07a.6.6,0,0,0,.19-.47Z"/><path d="M14.32,24.74A.64.64,0,0,0,15,24.1a.64.64,0,0,0-.64-.64,4.54,4.54,0,0,0-4.49,4.59,4.61,4.61,0,0,0,2.79,4.25.64.64,0,0,0,.45,1.09.63.63,0,0,0,.33-.09l1.25-.75a.66.66,0,0,0,.14-1l-1-1.08a.63.63,0,0,0-.9,0,.6.6,0,0,0-.21.46,3.34,3.34,0,0,1-1.59-2.85,3.27,3.27,0,0,1,3.21-3.31Z"/><path d="M22.82,10.25a.64.64,0,0,0,.64-.64V5.81a.64.64,0,0,0-1.28,0v3.8A.64.64,0,0,0,22.82,10.25Z"/><path d="M22.18,12.86a.64.64,0,1,0,1.28,0h0a.64.64,0,1,0-1.28,0Z"/><path d="M31.4,15.23a2.72,2.72,0,0,0-.23-2.74L24.6,1.65a2.09,2.09,0,0,0-1.78-1,2.06,2.06,0,0,0-1.77,1L18.53,5.79a.64.64,0,1,0,1.1.66l2.51-4.14a.77.77,0,0,1,1.36,0l6.58,10.84a1.48,1.48,0,0,1,.2,1.45,1.07,1.07,0,0,1-1,.46H16.37a1.07,1.07,0,0,1-1-.46,1.48,1.48,0,0,1,.21-1.45L18.09,9a.65.65,0,0,0-.22-.88.64.64,0,0,0-.88.21l-2.52,4.16a2.72,2.72,0,0,0-.23,2.74,2.33,2.33,0,0,0,2.13,1.11c1.82,0,11.08,0,12.9,0a2.33,2.33,0,0,0,2.13-1.11Z"/></svg>