<svg id="Layer_1" data-name="Layer 1" xmlns="http://www.w3.org/2000/svg" viewBox="0 0 45 45"><path d="M30.29,34.44l-2.48-1.58-.76,1.19,1.88,1.19-6.43,4.1-6.43-4.1L18,34.05l-.76-1.19-2.48,1.58a1.41,1.41,0,0,0-.66,1.19v2.75a1.4,1.4,0,0,0,.65,1.18l7,4.48a1.4,1.4,0,0,0,1.52,0l7-4.48A1.4,1.4,0,0,0,31,38.38V35.63A1.41,1.41,0,0,0,30.29,34.44Zm-.75,3.94-7,4.48-7-4.48V36.53l6.28,4a1.44,1.44,0,0,0,1.52,0l6.28-4Z"/><path d="M19.68,35.24h5.64a.7.7,0,0,0,.7-.7V31a2.46,2.46,0,0,0-1.94-2.4,2.28,2.28,0,1,0-3.23-.07.46.46,0,0,0,.07.07A2.46,2.46,0,0,0,19,31v3.52A.7.7,0,0,0,19.68,35.24Zm2.82-9.15a.88.88,0,1,1-.88.88A.88.88,0,0,1,22.5,26.09ZM20.39,31A1.06,1.06,0,0,1,21.44,30h2.12A1.06,1.06,0,0,1,24.61,31v2.82H20.39Z"/><path d="M23.2,21.87V5.56a2.47,2.47,0,1,0-1.4,0V21.87ZM21.44,3.21A1.06,1.06,0,1,1,22.5,4.27,1.06,1.06,0,0,1,21.44,3.21Z"/><path d="M15.18,17.5,18,15.39a.7.7,0,0,0,.29-.56V11.19a2.47,2.47,0,1,0-1.41,0v3.29l-2.54,1.9Zm1.34-8.65A1.06,1.06,0,1,1,17.57,9.9,1.05,1.05,0,0,1,16.52,8.85Z"/><path d="M27,15.39l2.81,2.11.85-1.12-2.54-1.9V11.19a2.46,2.46,0,1,0-1.41,0v3.64A.7.7,0,0,0,27,15.39Zm-.64-6.54A1.06,1.06,0,1,1,27.43,9.9,1.05,1.05,0,0,1,26.37,8.85Z"/><path d="M43.67,23.18l-2.49-1.59-.75,1.19L42.31,24l-6.43,4.09L29.44,24l1.89-1.2-.76-1.19-2.49,1.59a1.4,1.4,0,0,0-.65,1.19v2.74a1.4,1.4,0,0,0,.65,1.19l7,4.48a1.42,1.42,0,0,0,1.51,0l7-4.48a1.39,1.39,0,0,0,.65-1.19V24.37A1.38,1.38,0,0,0,43.67,23.18Zm-.75,3.93-7,4.48-7-4.48V25.26l6.28,4a1.42,1.42,0,0,0,1.51,0l6.29-4Z"/><path d="M32.36,23.28a.7.7,0,0,0,.7.7h5.63a.7.7,0,0,0,.71-.7V19.76a2.48,2.48,0,0,0-1.94-2.41,2.29,2.29,0,1,0-3.24-.06l.07.06a2.46,2.46,0,0,0-1.93,2.41Zm3.52-8.45a.88.88,0,1,1-.88.88A.88.88,0,0,1,35.88,14.83Zm-2.12,4.93a1.06,1.06,0,0,1,1.06-1.06h2.11A1.06,1.06,0,0,1,38,19.76v2.81H33.76Z"/><path d="M17.57,27.11V24.37a1.4,1.4,0,0,0-.65-1.19l-2.49-1.59-.76,1.19L15.56,24,9.12,28.07,2.69,24l1.88-1.2-.75-1.19L1.33,23.18a1.4,1.4,0,0,0-.65,1.19v2.74a1.4,1.4,0,0,0,.65,1.19l7,4.48a1.42,1.42,0,0,0,1.51,0l7-4.48A1.39,1.39,0,0,0,17.57,27.11Zm-1.41,0-7,4.48-7-4.48V25.26l6.29,4a1.42,1.42,0,0,0,1.51,0l6.28-4Z"/><path d="M5.6,19.76v3.52a.7.7,0,0,0,.71.7h5.63a.7.7,0,0,0,.7-.7V19.76a2.46,2.46,0,0,0-1.93-2.41,2.29,2.29,0,1,0-3.24-.06l.07.06A2.48,2.48,0,0,0,5.6,19.76Zm3.52-4.93a.88.88,0,1,1-.88.88A.89.89,0,0,1,9.12,14.83ZM7,19.76A1.06,1.06,0,0,1,8.07,18.7h2.11a1.06,1.06,0,0,1,1.06,1.06v2.81H7Z"/></svg>