<svg id="Layer_1" data-name="Layer 1" xmlns="http://www.w3.org/2000/svg" viewBox="0 0 45 45"><defs><style>.cls-1{fill:#010101;}</style></defs><path class="cls-1" d="M22.5,44.62A22.12,22.12,0,1,1,44.62,22.5,22.12,22.12,0,0,1,22.5,44.62Zm0-43.25A21.13,21.13,0,1,0,43.63,22.5,21.13,21.13,0,0,0,22.5,1.37Z"/><path class="cls-1" d="M38.23,37.74h-1V16.31l-6.11-6.1H7.75V37.74h-1V10.21a1,1,0,0,1,1-1h23.6a.48.48,0,0,1,.34.14l6.39,6.39a.49.49,0,0,1,.15.35Z"/><path class="cls-1" d="M37.74,16.6H31.35a.49.49,0,0,1-.49-.49V9.72h1v5.9h5.9Z"/><path class="cls-1" d="M20,32.33A10.32,10.32,0,1,1,30.36,22,10.32,10.32,0,0,1,20,32.33Zm0-19.66A9.34,9.34,0,1,0,29.38,22,9.34,9.34,0,0,0,20,12.67Z"/><path class="cls-1" d="M20,29.87A7.87,7.87,0,1,1,27.91,22,7.86,7.86,0,0,1,20,29.87Zm0-14.74A6.88,6.88,0,1,0,26.92,22,6.88,6.88,0,0,0,20,15.13Z"/><path class="cls-1" d="M20,26.92A4.92,4.92,0,1,1,25,22,4.91,4.91,0,0,1,20,26.92Zm0-8.84A3.93,3.93,0,1,0,24,22,3.93,3.93,0,0,0,20,18.08Z"/><path class="cls-1" d="M34.79,23.48h-2a.52.52,0,0,1-.35-.14l-.83-.84H20v-1h11.6l.83-.84a.53.53,0,0,1,.35-.15h2a.49.49,0,0,1,.49.5v2A.49.49,0,0,1,34.79,23.48ZM33,22.5H34.3v-1H33l-.49.49Z"/><path class="cls-1" d="M19.55,20.53h1v2.95h-1Z"/><path class="cls-1" d="M19.55,38.23H11.69a1,1,0,0,1-1-1v-2a1,1,0,0,1,1-1h7.86a1,1,0,0,1,1,1v2A1,1,0,0,1,19.55,38.23Zm-7.86-2.95v2h7.86v-2Z"/><path class="cls-1" d="M13.65,34.79h1v3h-1Z"/><path class="cls-1" d="M22,33.8H34.3v1H22Z"/><path class="cls-1" d="M22,35.77h3.44v1H22Z"/><path class="cls-1" d="M26.43,35.77h1v1h-1Z"/><path class="cls-1" d="M28.4,35.77h1v1h-1Z"/><path class="cls-1" d="M22,37.74h3.93v1H22Z"/></svg>