<svg id="Layer_1" data-name="Layer 1" xmlns="http://www.w3.org/2000/svg" viewBox="0 0 45 45"><defs><style>.cls-1{fill:none;stroke:#000;stroke-miterlimit:10;stroke-width:0.93px;}</style></defs><path class="cls-1" d="M37.47,18V43a.92.92,0,0,1-.92.91H2A.92.92,0,0,1,1.07,43V18A.92.92,0,0,1,2,17.1H36.55a.92.92,0,0,1,.92.92Z"/><path class="cls-1" d="M37.47,15.61V18a.92.92,0,0,0-.92-.92H2a.92.92,0,0,0-.92.92V11.84A.92.92,0,0,1,2,10.92H15.26a.92.92,0,0,1,.92.92v.45a1.35,1.35,0,0,0,1.37,1.38H18.6a3.15,3.15,0,0,0,2.83,1.94Z"/><path class="cls-1" d="M22.08,30.49a2.81,2.81,0,1,1-2.81-2.82A2.81,2.81,0,0,1,22.08,30.49Z"/><path class="cls-1" d="M27.4,32a.52.52,0,0,0,.52-.52v-2A.52.52,0,0,0,27.4,29H25.82a.78.78,0,0,1-.69-.5l-.29-.72a.77.77,0,0,1,.13-.83l1.12-1.13a.51.51,0,0,0,0-.74l-1.41-1.42a.52.52,0,0,0-.73,0l-1.12,1.13a.79.79,0,0,1-.83.14l-.72-.3a.77.77,0,0,1-.49-.69V22.32a.52.52,0,0,0-.52-.52h-2a.52.52,0,0,0-.52.52v1.59a.77.77,0,0,1-.49.69l-.72.3a.79.79,0,0,1-.83-.14l-1.12-1.13a.52.52,0,0,0-.73,0l-1.42,1.42a.53.53,0,0,0,0,.74l1.13,1.13a.77.77,0,0,1,.13.83l-.3.72a.77.77,0,0,1-.68.5H11.13a.52.52,0,0,0-.52.52v2a.53.53,0,0,0,.52.52h1.59a.76.76,0,0,1,.68.49l.3.72a.78.78,0,0,1-.13.84l-1.13,1.12a.53.53,0,0,0,0,.74l1.42,1.42a.52.52,0,0,0,.73,0l1.12-1.13a.77.77,0,0,1,.83-.13l.72.29a.79.79,0,0,1,.49.69v1.6a.52.52,0,0,0,.52.52h2a.53.53,0,0,0,.52-.52v-1.6a.79.79,0,0,1,.49-.69l.72-.29a.77.77,0,0,1,.83.13L24,37.35a.52.52,0,0,0,.73,0l1.41-1.42a.51.51,0,0,0,0-.74L25,34.07a.78.78,0,0,1-.13-.84l.29-.72a.77.77,0,0,1,.69-.49Z"/><path class="cls-1" d="M27.4,32a.52.52,0,0,0,.52-.52v-2A.52.52,0,0,0,27.4,29H25.82a.78.78,0,0,1-.69-.5l-.29-.72a.77.77,0,0,1,.13-.83l1.12-1.13a.51.51,0,0,0,0-.74l-1.41-1.42a.52.52,0,0,0-.73,0l-1.12,1.13a.79.79,0,0,1-.83.14l-.72-.3a.77.77,0,0,1-.49-.69V22.32a.52.52,0,0,0-.52-.52h-2a.52.52,0,0,0-.52.52v1.59a.77.77,0,0,1-.49.69l-.72.3a.79.79,0,0,1-.83-.14l-1.12-1.13a.52.52,0,0,0-.73,0l-1.42,1.42a.53.53,0,0,0,0,.74l1.13,1.13a.77.77,0,0,1,.13.83l-.3.72a.77.77,0,0,1-.68.5H11.13a.52.52,0,0,0-.52.52v2a.53.53,0,0,0,.52.52h1.59a.76.76,0,0,1,.68.49l.3.72a.78.78,0,0,1-.13.84l-1.13,1.12a.53.53,0,0,0,0,.74l1.42,1.42a.52.52,0,0,0,.73,0l1.12-1.13a.77.77,0,0,1,.83-.13l.72.29a.79.79,0,0,1,.49.69v1.6a.52.52,0,0,0,.52.52h2a.53.53,0,0,0,.52-.52v-1.6a.79.79,0,0,1,.49-.69l.72-.29a.77.77,0,0,1,.83.13L24,37.35a.52.52,0,0,0,.73,0l1.41-1.42a.51.51,0,0,0,0-.74L25,34.07a.78.78,0,0,1-.13-.84l.29-.72a.77.77,0,0,1,.69-.49Z"/><path class="cls-1" d="M42.42,14.62a4.23,4.23,0,0,1-1.28.75A4.11,4.11,0,0,0,42.42,14.62Z"/><path class="cls-1" d="M43.93,11.28a4.43,4.43,0,0,1-1.23,3.08l-.15.14-.13.12h0a4.11,4.11,0,0,1-1.28.75h0l0,0A4.12,4.12,0,0,1,40,15.6H21.43a3.15,3.15,0,0,1-2.83-1.94,3.63,3.63,0,0,1-.3-1.43A3.25,3.25,0,0,1,21.43,8.9h.19a5.45,5.45,0,0,1,5.26-4.66h.35l.56.07-.56-.07a6.75,6.75,0,0,1,5.64-3.13,7,7,0,0,1,6.71,5.7s0,.09,0,.14h.19a4.23,4.23,0,0,1,4.14,4.32Z"/><path class="cls-1" d="M39.72,8.33A7.76,7.76,0,0,0,39.6,7"/><path class="cls-1" d="M41.09,15.39a3.65,3.65,0,0,1-1.22.22H40A4.12,4.12,0,0,0,41.09,15.39Z"/><path class="cls-1" d="M27.79,4.32l.53.13"/><path class="cls-1" d="M21.77,8.92l-.15,0"/><path class="cls-1" d="M40,9.69a11.62,11.62,0,0,1-.28-1.36A7.76,7.76,0,0,0,39.6,7"/><path class="cls-1" d="M27.79,4.32l.53.13h0"/><circle class="cls-1" cx="3.13" cy="13.95" r="0.4"/><circle class="cls-1" cx="5.55" cy="13.95" r="0.4"/><circle class="cls-1" cx="7.98" cy="13.95" r="0.4"/><path class="cls-1" d="M33,4.61l-1.42,1a3.82,3.82,0,0,1,1.84,7.16"/><path class="cls-1" d="M31.55,5.58,32.63,7"/><path class="cls-1" d="M29.85,6a3.82,3.82,0,0,0,1.7,7.23l-1-1.38"/><path class="cls-1" d="M31.55,13.21,30,14.06"/></svg>