<svg id="Layer_1" data-name="Layer 1" xmlns="http://www.w3.org/2000/svg" viewBox="0 0 45 45"><path d="M21,18.68a3.62,3.62,0,1,0,3.61,3.61A3.63,3.63,0,0,0,21,18.68Zm0,6.19a2.57,2.57,0,1,1,2.56-2.57A2.58,2.58,0,0,1,21,24.87Z"/><path d="M27.44,25.75A8,8,0,0,0,28,24.39L29.5,24a.52.52,0,0,0,.4-.51V21.06a.51.51,0,0,0-.4-.5L28,20.19a8,8,0,0,0-.56-1.36l.8-1.31a.51.51,0,0,0-.08-.64l-1.73-1.74a.52.52,0,0,0-.64-.07l-1.32.8a7,7,0,0,0-1.36-.57l-.36-1.49a.52.52,0,0,0-.51-.4H19.79a.52.52,0,0,0-.51.4l-.36,1.49a7.9,7.9,0,0,0-1.37.57l-1.31-.8a.51.51,0,0,0-.64.07l-1.74,1.74a.52.52,0,0,0-.08.64l.81,1.31A7.1,7.1,0,0,0,14,20.19l-1.49.37a.5.5,0,0,0-.4.5v2.46a.53.53,0,0,0,.4.51l1.49.36a7.8,7.8,0,0,0,.57,1.36l-.81,1.31a.51.51,0,0,0,.08.64l1.74,1.74a.53.53,0,0,0,.64.08l1.31-.81a7.3,7.3,0,0,0,1.37.57l.36,1.5a.51.51,0,0,0,.51.39h2.45a.53.53,0,0,0,.51-.39l.36-1.5a7.8,7.8,0,0,0,1.36-.57l1.32.81a.53.53,0,0,0,.64-.08l1.73-1.74a.51.51,0,0,0,.08-.64ZM26.38,26l.75,1.22L26,28.41l-1.23-.75a.54.54,0,0,0-.55,0,5.82,5.82,0,0,1-1.66.69.52.52,0,0,0-.38.39l-.34,1.4H20.2l-.33-1.4a.55.55,0,0,0-.38-.39,6.19,6.19,0,0,1-1.67-.69.57.57,0,0,0-.54,0l-1.23.75L14.9,27.26,15.65,26a.52.52,0,0,0,0-.54A5.89,5.89,0,0,1,15,23.82a.52.52,0,0,0-.39-.37l-1.4-.34V21.48l1.4-.35a.51.51,0,0,0,.39-.37,6,6,0,0,1,.69-1.67.54.54,0,0,0,0-.55l-.75-1.22,1.15-1.15,1.22.76a.52.52,0,0,0,.54,0,6,6,0,0,1,1.67-.7.54.54,0,0,0,.38-.38l.33-1.4h1.63l.34,1.4a.54.54,0,0,0,.38.38,6,6,0,0,1,1.66.7.57.57,0,0,0,.54,0L26,16.18l1.15,1.15-.74,1.23a.51.51,0,0,0,0,.53,6.77,6.77,0,0,1,.69,1.68.56.56,0,0,0,.38.38l1.4.34v1.63l-1.4.34a.56.56,0,0,0-.38.38,6.08,6.08,0,0,1-.69,1.68.54.54,0,0,0,0,.52Z"/><path d="M44.44,36.28l-5.72-4.92a.52.52,0,0,0-.56-.07.51.51,0,0,0-.31.47v1.41H35.18a17.76,17.76,0,0,0,2.28-17.88A6.22,6.22,0,1,0,31,7.49,17.7,17.7,0,0,0,21,4.41,17.84,17.84,0,0,0,6.86,33.17H.9a.53.53,0,0,0-.52.53.54.54,0,0,0,.52.53H7.71A17.89,17.89,0,0,0,15,39.14H.9a.52.52,0,0,0,0,1h37V41.6a.52.52,0,0,0,.3.48.59.59,0,0,0,.22.05.5.5,0,0,0,.34-.13l5.73-4.92a.53.53,0,0,0,0-.8ZM37,3.93A5.18,5.18,0,1,1,31.85,9.1,5.19,5.19,0,0,1,37,3.93ZM38.9,40.46v-.81a.53.53,0,0,0-.53-.52H21a16.84,16.84,0,1,1,9.82-30.5c0,.15,0,.3,0,.46a6.22,6.22,0,0,0,5.51,6.18,16.79,16.79,0,0,1-2.46,17.9h-8A11.92,11.92,0,0,0,21,10.37a11.71,11.71,0,0,0-6.33,1.84,11.92,11.92,0,0,0,6.33,22H38.37a.53.53,0,0,0,.52-.52v-.8l4.4,3.77ZM21,33.17a10.66,10.66,0,0,1-5.77-1.68,10.86,10.86,0,1,1,5.85,1.68Z"/><path d="M35.67,11a.51.51,0,0,0,.74,0l3-3a.52.52,0,0,0-.74-.74L36,9.87l-.71-.71a.52.52,0,0,0-.74.74Z"/></svg>