<svg id="Layer_1" data-name="Layer 1" xmlns="http://www.w3.org/2000/svg" viewBox="0 0 132 140"><defs><style>.cls-1{fill:#5514b2;}</style></defs><path class="cls-1" d="M66,4.62A65.38,65.38,0,1,0,131.38,70,65.38,65.38,0,0,0,66,4.62Zm0,8.06A57.4,57.4,0,1,1,8.58,70.08,57.4,57.4,0,0,1,66,12.68Z"/><path class="cls-1" d="M33.41,47.66V92.17H51.52c8.24,0,14.56-5.14,14.56-13.28A11.09,11.09,0,0,0,60.48,69a10.69,10.69,0,0,0,4.3-8.85c0-7.1-5.6-12.46-13.86-12.46Zm10,8.69h5.36c3.81,0,5.46,1.95,5.46,4.37C54.25,63.34,52.36,65,49,65H43.43Zm0,17.56h5.36c3.81,0,5.46,2,5.46,4.38,0,2.61-1.89,4.28-5.21,4.28H43.43Z"/><path class="cls-1" d="M79.52,92V57.87h-10V47.58h31.15V57.87H90.22V92Z"/></svg>