<?xml version="1.0" encoding="utf-8"?>
<!-- Generator: Adobe Illustrator 25.3.1, SVG Export Plug-In . SVG Version: 6.00 Build 0)  -->
<svg version="1.1" id="Layer_1" xmlns="http://www.w3.org/2000/svg" xmlns:xlink="http://www.w3.org/1999/xlink" x="0px" y="0px"
	 viewBox="0 0 613.82 103.39" style="enable-background:new 0 0 613.82 103.39;" xml:space="preserve">
<style type="text/css">
	.st0{stroke:#000000;stroke-width:0.5;stroke-miterlimit:10;}
	.st1{fill:none;stroke:#000000;stroke-miterlimit:10;}
	.st2{fill:#691D7F;}
	.st3{fill:#691D7F;stroke:#691D7F;stroke-width:2;stroke-miterlimit:10;}
</style>
<g>
	<g>
		<g>
			<path class="st0" d="M602.12,21.31v4.3h-1.2V15.27h2.84c1.27,0,2.21,0.24,2.81,0.73c0.61,0.49,0.91,1.22,0.91,2.19
				c0,1.37-0.69,2.29-2.08,2.77l2.81,4.65h-1.42l-2.5-4.3H602.12z M602.12,20.28h1.65c0.85,0,1.47-0.17,1.87-0.51
				c0.4-0.34,0.59-0.84,0.59-1.52c0-0.68-0.2-1.18-0.61-1.48c-0.4-0.3-1.05-0.45-1.94-0.45h-1.56V20.28z"/>
		</g>
		<circle class="st1" cx="604.13" cy="20.63" r="9"/>
	</g>
	<g>
		<path d="M139.02,67.11c-0.44,2-1.07,5.6-1.89,10.8c-3.67,0.78-6.76,1.31-9.27,1.58c-2.51,0.27-5.04,0.41-7.59,0.41
			c-4.45,0-8.43-0.44-11.95-1.32c-3.52-0.88-6.6-2.5-9.25-4.86c-2.65-2.36-4.6-5.25-5.86-8.68c-1.26-3.43-1.89-7.03-1.89-10.79
			c0-4.17,0.73-8.22,2.19-12.14c1.46-3.92,3.51-7.13,6.14-9.62c2.63-2.5,5.63-4.26,8.99-5.29c3.36-1.04,6.88-1.55,10.55-1.55
			c3.46,0,6.76,0.43,9.88,1.3c3.12,0.87,5.75,2.28,7.87,4.25c2.12,1.97,3.75,4.33,4.89,7.09c1.14,2.76,1.71,5.84,1.71,9.23
			c0,1.59-0.17,3.24-0.51,4.93l-37.35,0.05c-0.07,1.26-0.1,2.26-0.1,3.01c0,2.28,0.39,4.37,1.17,6.27c0.78,1.9,1.92,3.52,3.41,4.84
			c1.49,1.33,3.28,2.3,5.35,2.93c2.07,0.63,4.11,0.94,6.11,0.94c2.34,0,4.88-0.25,7.62-0.76C131.99,69.2,135.25,68.33,139.02,67.11z
			 M106.1,46.52l23.85,0.05c0-1.62-0.05-2.82-0.15-3.6c-0.1-0.78-0.33-1.67-0.69-2.66c-0.36-1-0.84-1.88-1.45-2.64
			c-0.61-0.76-1.32-1.4-2.14-1.9c-0.82-0.51-1.76-0.9-2.83-1.17c-1.07-0.27-2.22-0.41-3.44-0.41c-1.43,0-2.81,0.22-4.15,0.66
			c-1.34,0.44-2.57,1.08-3.69,1.93c-1.12,0.84-2.03,1.79-2.73,2.84c-0.7,1.05-1.21,2.06-1.55,3.02
			C106.78,43.61,106.44,44.9,106.1,46.52z"/>
		<path d="M197.68,78.68c-2.82-0.07-5.01-0.1-6.58-0.1c-1.7,0-4.04,0.03-7.03,0.1l0.45-8.87c-1.49,1.94-2.78,3.43-3.85,4.48
			c-1.07,1.05-2.39,2.03-3.97,2.93c-1.58,0.9-3.29,1.57-5.12,2.01c-1.83,0.44-3.74,0.66-5.71,0.66c-3.26,0-6.32-0.59-9.17-1.78
			c-2.85-1.19-5.28-2.86-7.29-5.02s-3.48-4.72-4.43-7.69c-0.95-2.97-1.43-6.07-1.43-9.3c0-4.45,0.85-8.79,2.54-13.02
			c1.7-4.23,4.02-7.65,6.98-10.27c2.95-2.62,6.29-4.47,10.03-5.55c3.73-1.09,7.74-1.63,12.02-1.63c3.09,0,6.58,0.29,10.49,0.87
			c0.25-4.42,0.38-9.05,0.38-13.91V9.12c3.2,0.07,5.64,0.1,7.34,0.1c2.21,0,4.69-0.03,7.45-0.1c-0.75,8.63-1.45,20.37-2.11,35.24
			C198.01,59.22,197.68,70.66,197.68,78.68z M185.09,36.18c-2.55-0.68-4.99-1.02-7.34-1.02c-2.68,0-5.25,0.37-7.69,1.12
			c-2.45,0.75-4.61,2.02-6.5,3.82s-3.34,4.11-4.36,6.93c-1.02,2.82-1.53,5.54-1.53,8.15c0,2.62,0.47,5.01,1.4,7.18
			c0.93,2.17,2.39,3.89,4.36,5.15c1.97,1.26,4.19,1.89,6.67,1.89c1.87,0,3.57-0.33,5.09-0.99c1.53-0.66,2.92-1.68,4.18-3.06
			c1.26-1.38,2.32-3.15,3.18-5.33c0.87-2.17,1.49-5.06,1.86-8.66C184.66,48.72,184.88,43.65,185.09,36.18z"/>
		<path d="M207.66,89.43c7.64,2.51,14.27,3.77,19.87,3.77c2.14,0,4.16-0.26,6.06-0.79c1.9-0.53,3.5-1.29,4.79-2.29
			c1.29-1,2.29-2.36,3.01-4.07s1.19-3.7,1.43-5.95c0.24-2.25,0.42-5.67,0.56-10.25c-1.33,1.8-2.51,3.2-3.57,4.2
			c-1.05,1-2.32,1.9-3.8,2.7c-1.48,0.8-3.2,1.44-5.17,1.94c-1.97,0.49-4.04,0.74-6.22,0.74c-2.99,0-5.83-0.47-8.51-1.4
			c-2.68-0.93-5.07-2.4-7.16-4.41c-2.09-2-3.68-4.53-4.76-7.57c-1.09-3.04-1.63-6.21-1.63-9.5c0-4.72,0.89-9.19,2.67-13.4
			c1.78-4.21,4.4-7.68,7.85-10.39c3.45-2.72,7.13-4.59,11.06-5.6c3.92-1.02,8.28-1.53,13.07-1.53c2.65,0,5.66,0.16,9.02,0.48
			c3.36,0.32,7.81,0.98,13.35,1.96l-1.17,16.14l-1.07,20.21l-0.41,18.28c-0.1,2.07-0.36,4.06-0.76,5.98
			c-0.41,1.92-1.05,3.65-1.94,5.19c-0.88,1.54-2,2.91-3.36,4.1c-1.36,1.19-2.9,2.15-4.61,2.88c-1.72,0.73-3.84,1.33-6.37,1.81
			c-2.53,0.47-5.24,0.71-8.13,0.71c-3.09,0-6.61-0.2-10.55-0.61c-3.94-0.41-8.24-1.17-12.89-2.29L207.66,89.43z M244.87,37.05
			c-2.96-0.61-5.69-0.92-8.21-0.92c-4.42,0-8.07,0.81-10.96,2.42c-2.89,1.62-5.11,3.97-6.68,7.07s-2.34,6.38-2.34,9.85
			c0,2.55,0.48,4.93,1.43,7.12c0.95,2.19,2.44,3.85,4.46,4.98c2.02,1.12,4.26,1.68,6.7,1.68c1.73,0,3.35-0.27,4.87-0.82
			c1.51-0.54,2.88-1.38,4.1-2.5c1.22-1.12,2.3-2.52,3.24-4.19c0.93-1.67,1.6-3.55,1.99-5.64c0.39-2.09,0.69-4.71,0.89-7.86
			C244.56,45.1,244.73,41.37,244.87,37.05z"/>
		<path d="M309.78,67.11c-0.44,2-1.07,5.6-1.89,10.8c-3.67,0.78-6.76,1.31-9.27,1.58c-2.51,0.27-5.04,0.41-7.59,0.41
			c-4.45,0-8.43-0.44-11.95-1.32c-3.52-0.88-6.6-2.5-9.25-4.86c-2.65-2.36-4.6-5.25-5.86-8.68c-1.26-3.43-1.89-7.03-1.89-10.79
			c0-4.17,0.73-8.22,2.19-12.14c1.46-3.92,3.51-7.13,6.14-9.62c2.63-2.5,5.63-4.26,8.99-5.29c3.36-1.04,6.88-1.55,10.55-1.55
			c3.46,0,6.76,0.43,9.88,1.3c3.12,0.87,5.75,2.28,7.87,4.25c2.12,1.97,3.75,4.33,4.89,7.09c1.14,2.76,1.71,5.84,1.71,9.23
			c0,1.59-0.17,3.24-0.51,4.93l-37.35,0.05c-0.07,1.26-0.1,2.26-0.1,3.01c0,2.28,0.39,4.37,1.17,6.27c0.78,1.9,1.92,3.52,3.41,4.84
			c1.49,1.33,3.28,2.3,5.35,2.93c2.07,0.63,4.11,0.94,6.11,0.94c2.34,0,4.88-0.25,7.62-0.76C302.76,69.2,306.01,68.33,309.78,67.11z
			 M276.87,46.52l23.85,0.05c0-1.62-0.05-2.82-0.15-3.6c-0.1-0.78-0.33-1.67-0.69-2.66c-0.36-1-0.84-1.88-1.45-2.64
			c-0.61-0.76-1.32-1.4-2.14-1.9c-0.82-0.51-1.76-0.9-2.83-1.17c-1.07-0.27-2.22-0.41-3.44-0.41c-1.43,0-2.81,0.22-4.15,0.66
			c-1.34,0.44-2.57,1.08-3.69,1.93c-1.12,0.84-2.03,1.79-2.73,2.84c-0.7,1.05-1.21,2.06-1.55,3.02
			C277.55,43.61,277.21,44.9,276.87,46.52z"/>
		<path d="M315.85,78.68c0.48-5.77,0.98-14.4,1.5-25.88c0.53-11.48,0.79-20.13,0.79-25.94c2.89,0.07,5.23,0.1,7.03,0.1
			c2.07,0,4.31-0.03,6.73-0.1l-0.39,8.2c1.09-1.6,2.08-2.9,2.98-3.9c0.9-1,2.06-1.93,3.49-2.78c1.43-0.85,3.1-1.52,5.02-2.01
			c1.92-0.49,3.9-0.74,5.94-0.74c1.53,0,3,0.15,4.43,0.43c1.43,0.29,2.72,0.7,3.9,1.22c1.17,0.53,2.17,1.13,3,1.81
			c0.83,0.68,1.54,1.44,2.12,2.27c0.58,0.83,1.21,2.06,1.88,3.69c0.75-1.19,1.43-2.18,2.06-2.98c0.63-0.8,1.47-1.62,2.52-2.47
			c1.05-0.85,2.22-1.56,3.52-2.14c1.29-0.58,2.74-1.03,4.36-1.35c1.61-0.32,3.29-0.48,5.02-0.48c2.96,0,5.74,0.48,8.36,1.45
			c2.61,0.97,4.67,2.5,6.16,4.59c1.49,2.09,2.24,4.68,2.24,7.77c0,1.63-0.12,4.03-0.35,7.18c-0.24,3.16-0.52,8.31-0.86,15.46
			c-0.34,7.15-0.52,12.68-0.55,16.59c-2.48-0.07-4.68-0.1-6.58-0.1c-2.25,0-4.88,0.03-7.91,0.1c0.31-4.38,0.6-8.97,0.87-13.76
			l0.61-11.67c0.17-2.96,0.26-5.45,0.26-7.49c0-2.42-0.38-4.26-1.15-5.51c-0.77-1.25-1.73-2.14-2.91-2.67s-2.49-0.79-3.95-0.79
			c-1.53,0-2.91,0.29-4.15,0.87c-1.24,0.58-2.4,1.52-3.46,2.82c-1.07,1.3-1.89,2.81-2.47,4.53s-1,4.14-1.27,7.25
			c-0.27,3.11-0.49,7.19-0.65,12.25l-0.35,14.17c-2.82-0.07-5.17-0.1-7.04-0.1c-1.87,0-4.37,0.03-7.5,0.1
			c0.24-2.62,0.57-7.97,1.01-16.05c0.44-8.08,0.66-13.54,0.66-16.36c0-1.49-0.12-2.76-0.36-3.8c-0.24-1.04-0.72-2.02-1.45-2.96
			c-0.73-0.93-1.59-1.62-2.57-2.06s-2.12-0.66-3.41-0.66c-2.38,0-4.46,0.78-6.26,2.34c-1.8,1.56-3.11,3.65-3.95,6.27
			c-0.83,2.62-1.43,7.7-1.8,15.26c-0.37,7.56-0.56,13.56-0.56,18.01c-3.12-0.07-5.47-0.1-7.07-0.1
			C321.53,78.57,319.04,78.61,315.85,78.68z"/>
		<path d="M406.66,38.22c0.48-2.45,0.77-4.16,0.89-5.15c0.12-0.98,0.33-2.48,0.64-4.48c4.62-1.09,8.7-1.85,12.23-2.29
			s6.95-0.66,10.24-0.66c3.74,0,7.17,0.43,10.29,1.3c3.12,0.87,5.57,2.25,7.34,4.15c1.77,1.9,2.65,4.64,2.65,8.2
			c0,1.94-0.27,6.87-0.81,14.8c-0.54,7.93-0.86,16.13-0.96,24.59c-2.58-0.07-4.96-0.1-7.14-0.1c-2.08,0-4.51,0.03-7.29,0.1
			c0.45-4.11,0.81-8.87,1.08-14.27l0.67-12.69c-1.29,0.85-2.28,1.44-2.96,1.78c-0.68,0.34-1.45,0.66-2.3,0.94
			c-0.85,0.29-2.35,0.73-4.49,1.32c-2.14,0.59-3.86,1.11-5.15,1.55c-1.29,0.44-2.46,0.94-3.49,1.5s-1.91,1.19-2.63,1.88
			c-0.71,0.7-1.23,1.43-1.56,2.19s-0.48,1.59-0.48,2.47c0,1.43,0.42,2.66,1.25,3.69s1.88,1.76,3.13,2.17
			c1.26,0.41,2.73,0.61,4.43,0.61c1.09,0,2.23-0.08,3.44-0.25c1.21-0.17,2.83-0.59,4.87-1.27c-0.71,1.94-1.55,4.82-2.5,8.66
			c-2.41,0.41-4.33,0.66-5.76,0.76c-1.43,0.1-2.75,0.15-3.97,0.15c-4.28,0-7.8-0.58-10.55-1.73c-2.75-1.15-4.78-2.99-6.09-5.5
			c-1.31-2.51-1.96-5.04-1.96-7.59c0-1.46,0.25-2.9,0.76-4.33s1.26-2.73,2.24-3.92c0.99-1.19,2.26-2.33,3.82-3.44
			c1.56-1.1,3.82-2.17,6.78-3.21s6.87-2.08,11.73-3.13c1.29-0.27,2.63-0.6,4.03-0.99c1.39-0.39,2.51-0.77,3.34-1.15
			c0.83-0.37,1.56-0.86,2.17-1.45c0.61-0.59,1.06-1.21,1.35-1.86c0.29-0.64,0.43-1.31,0.43-1.99c0-1.33-0.43-2.45-1.3-3.36
			c-0.87-0.92-1.99-1.55-3.37-1.91c-1.38-0.36-2.9-0.54-4.56-0.54C420.97,33.79,414.14,35.26,406.66,38.22z"/>
		<path d="M487.43,68.03c-0.41,1.87-1.05,5.33-1.94,10.39c-2.85,0.64-5.1,1.05-6.73,1.22c-1.63,0.17-3.16,0.25-4.59,0.25
			c-2.51,0-4.76-0.24-6.75-0.71c-1.99-0.48-3.63-1.32-4.92-2.52c-1.29-1.21-2.17-2.62-2.62-4.23c-0.46-1.61-0.69-3.29-0.69-5.02
			c0-0.44,0.02-1.04,0.05-1.78s0.17-3.16,0.41-7.24l1.17-21.2h-7.33c0.17-2.04,0.32-5.32,0.46-9.83h7.67
			c0.2-1.97,0.41-5.32,0.61-10.04l6.02-1.17c1.26-0.24,3.69-0.8,7.3-1.68c-0.24,4.59-0.38,8.88-0.42,12.89h12.95
			c-0.24,4.59-0.36,7.87-0.36,9.83h-12.99c-0.71,13.83-1.07,21.83-1.07,24c0,2.11,0.23,3.74,0.69,4.89c0.46,1.16,1.2,1.99,2.22,2.5
			c1.02,0.51,2.11,0.76,3.26,0.76c0.85,0,1.74-0.07,2.68-0.2S485.08,68.64,487.43,68.03z"/>
		<path d="M488.15,78.68c0.52-5.1,0.88-9.36,1.09-12.79c0.34-5.43,0.65-11.7,0.91-18.8c0.26-7.1,0.44-13.84,0.54-20.23
			c3.31,0.07,5.79,0.1,7.45,0.1c1.52,0,3.98-0.03,7.39-0.1c-0.46,5.91-0.83,11.55-1.11,16.92c-0.28,5.37-0.48,11.52-0.61,18.45
			c-0.13,6.93-0.2,12.42-0.2,16.46c-3.09-0.07-5.58-0.1-7.45-0.1C494.39,78.57,491.72,78.61,488.15,78.68z M490.94,17.99
			c0.14-3.5,0.2-6.18,0.2-8.05V8.31c3.09,0.07,5.6,0.1,7.54,0.1c2.65,0,5.11-0.03,7.39-0.1c-0.1,0.85-0.17,1.82-0.2,2.9l-0.25,6.78
			c-2.58-0.07-4.96-0.1-7.13-0.1S493.79,17.92,490.94,17.99z"/>
		<path d="M550.32,66.91c-0.17,1.39-0.42,2.97-0.76,4.74s-0.7,3.96-1.07,6.57c-4.86,1.12-9.65,1.68-14.37,1.68
			c-2.75,0-5.4-0.25-7.95-0.76c-2.55-0.51-4.92-1.42-7.11-2.73c-2.19-1.31-4.12-3.03-5.78-5.17c-1.67-2.14-2.91-4.73-3.75-7.77
			c-0.83-3.04-1.25-6.17-1.25-9.4c0-4.28,0.69-8.39,2.06-12.33c1.38-3.94,3.39-7.16,6.04-9.66s5.6-4.2,8.84-5.1
			c3.24-0.9,6.85-1.35,10.83-1.35c2.21,0,4.48,0.13,6.83,0.38s5.11,0.77,8.31,1.55l0.76,11.16c-5.05-1.73-9.46-2.6-13.23-2.6
			c-2.31,0-4.48,0.39-6.54,1.17c-2.05,0.78-3.82,2.01-5.29,3.69s-2.53,3.63-3.15,5.83c-0.63,2.21-0.94,4.47-0.94,6.78
			c0,3.23,0.5,6.02,1.5,8.38c1,2.36,2.72,4.19,5.16,5.48c2.44,1.29,5.22,1.94,8.34,1.94c1.53,0,3.38-0.2,5.57-0.59
			C545.56,68.43,547.88,67.79,550.32,66.91z"/>
		<path d="M553.08,77.71l-1.12-11.21c3.33,1.36,6.15,2.3,8.46,2.83c2.31,0.53,4.43,0.79,6.37,0.79c1.94,0,3.57-0.23,4.89-0.69
			c1.32-0.46,2.31-1.14,2.96-2.04c0.64-0.9,0.97-1.84,0.97-2.83c0-0.44-0.04-0.85-0.13-1.22c-0.08-0.37-0.24-0.76-0.46-1.17
			c-0.22-0.41-0.48-0.79-0.76-1.15c-0.29-0.36-0.69-0.76-1.2-1.22c-0.51-0.46-1.24-1.04-2.19-1.76l-2.75-2.19
			c-2.65-2.07-4.67-3.7-6.06-4.89c-1.39-1.19-2.57-2.4-3.52-3.64c-0.95-1.24-1.67-2.55-2.17-3.92s-0.74-2.78-0.74-4.2
			c0-2.48,0.76-4.84,2.27-7.08c1.51-2.24,3.71-3.88,6.6-4.92c2.89-1.04,6.28-1.55,10.19-1.55c4.45,0,9.58,0.53,15.39,1.58
			l0.66,10.65c-3.94-1.6-7.73-2.39-11.36-2.39c-1.97,0-3.69,0.2-5.17,0.59c-1.48,0.39-2.54,0.99-3.18,1.78
			c-0.65,0.8-0.97,1.69-0.97,2.67c0,0.58,0.1,1.15,0.31,1.71s0.56,1.15,1.07,1.76s1.1,1.19,1.76,1.73c0.66,0.54,2.05,1.61,4.15,3.21
			c2.11,1.6,3.95,3.04,5.53,4.33c1.58,1.29,2.88,2.59,3.9,3.9c1.02,1.31,1.8,2.71,2.34,4.2c0.54,1.5,0.82,3.01,0.82,4.53
			c0,2.55-0.78,4.91-2.34,7.08c-1.56,2.17-3.92,3.87-7.08,5.1s-6.69,1.83-10.6,1.83c-2.04,0-4.52-0.16-7.44-0.48
			C559.53,79.09,556.41,78.52,553.08,77.71z"/>
	</g>
	<g>
		<circle class="st2" cx="44.84" cy="10.78" r="10.06"/>
		<circle class="st2" cx="67.73" cy="21.32" r="10.06"/>
		<circle class="st2" cx="77.79" cy="45.65" r="10.06"/>
		<circle class="st2" cx="67.73" cy="68.04" r="10.06"/>
		<circle class="st2" cx="44.2" cy="78.1" r="10.06"/>
		<circle class="st2" cx="19.07" cy="68.04" r="10.06"/>
		<circle class="st2" cx="10.22" cy="45.65" r="10.06"/>
		<circle class="st2" cx="18.26" cy="21.32" r="10.06"/>
		<circle class="st2" cx="44.39" cy="30.97" r="4.42"/>
		<circle class="st2" cx="54.36" cy="34.34" r="4.42"/>
		<circle class="st2" cx="58.21" cy="45.01" r="4.42"/>
		<circle class="st2" cx="54.26" cy="54.87" r="4.42"/>
		<circle class="st2" cx="30.36" cy="45.01" r="4.42"/>
		<circle class="st2" cx="33.45" cy="34.34" r="4.42"/>
		<circle class="st2" cx="33.86" cy="55.25" r="4.42"/>
		<circle class="st2" cx="44.2" cy="58.19" r="4.42"/>
		<line class="st3" x1="44.39" y1="19.87" x2="44.39" y2="70.63"/>
		<circle class="st2" cx="44.39" cy="45.25" r="4.42"/>
		<line class="st3" x1="75.11" y1="45.25" x2="12.49" y2="45.25"/>
	</g>
</g>
</svg>
