<svg id="Layer_1" data-name="Layer 1" xmlns="http://www.w3.org/2000/svg" xmlns:xlink="http://www.w3.org/1999/xlink" viewBox="0 0 132 140"><defs><style>.cls-1{fill:url(#linear-gradient);}.cls-2{fill:#fff;}.cls-3{fill:#105492;}.cls-4{fill:#953993;}</style><linearGradient id="linear-gradient" x1="53.74" y1="-10036.71" x2="78.74" y2="-10061.53" gradientTransform="matrix(1, 0, 0, -1, 0, -10006.76)" gradientUnits="userSpaceOnUse"><stop offset="0" stop-color="#ec4f8d"/><stop offset="0.47" stop-color="#d04374"/><stop offset="0.54" stop-color="#c74070"/><stop offset="1" stop-color="#a5335b"/></linearGradient></defs><rect class="cls-1" x="52.59" y="28.71" width="26.82" height="26.82" rx="3.58"/><circle class="cls-2" cx="58.76" cy="34.88" r="2.24"/><circle class="cls-2" cx="64.48" cy="34.88" r="2.24"/><circle class="cls-2" cx="70.2" cy="34.88" r="2.24"/><circle class="cls-2" cx="64.48" cy="40.6" r="2.24"/><circle class="cls-2" cx="58.76" cy="40.6" r="2.24"/><circle class="cls-2" cx="58.76" cy="46.32" r="2.24"/><path class="cls-3" d="M2.76,85.78V66.09H8.3V85.78Zm4.49-7V74.19h9.68v4.59Zm0-8.1V66.09H17.34v4.59Zm17,7.24V74.11h3.35a2.41,2.41,0,0,0,1.72-.56,1.87,1.87,0,0,0,.6-1.46,1.91,1.91,0,0,0-.6-1.47,2.4,2.4,0,0,0-1.72-.55H24.23v-4h4.24a8.28,8.28,0,0,1,3.59.74,6,6,0,0,1,2.44,2.08,5.42,5.42,0,0,1,.88,3.1,5.29,5.29,0,0,1-.91,3.09A5.89,5.89,0,0,1,32,77.18a8.87,8.87,0,0,1-3.79.74Zm-4.48,7.86V66.09h5.54V85.78Zm10.62,0L25,77.37l5-1.08,6.66,9.49Zm7.67,0V66.09h5.53V85.78Zm4.48,0V81.19H53.09v4.59Zm0-7.8V73.5h9.54V78Zm0-7.3V66.09h10.4v4.59ZM61.58,86.11a12.3,12.3,0,0,1-4.4-.72A10.17,10.17,0,0,1,53.75,83l3.46-3.46a8.32,8.32,0,0,0,2.27,1.58,6.21,6.21,0,0,0,2.54.53,3.55,3.55,0,0,0,1.72-.34,1.1,1.1,0,0,0,.58-1,1.22,1.22,0,0,0-.5-1,4.25,4.25,0,0,0-1.33-.72q-.8-.33-1.8-.66a15.85,15.85,0,0,1-1.93-.81A9.25,9.25,0,0,1,57,76.07a5.34,5.34,0,0,1-1.3-1.69,5.67,5.67,0,0,1-.5-2.49,5.85,5.85,0,0,1,.92-3.29,5.66,5.66,0,0,1,2.57-2.1,9.36,9.36,0,0,1,3.9-.75,11.34,11.34,0,0,1,4.09.72,8.17,8.17,0,0,1,3.15,2l-3.48,3.46a6.67,6.67,0,0,0-1.83-1.3,4.54,4.54,0,0,0-2-.44,2.89,2.89,0,0,0-1.38.28.89.89,0,0,0-.5.83,1.17,1.17,0,0,0,.5,1,5.78,5.78,0,0,0,1.3.67l1.8.63a16.53,16.53,0,0,1,2,.81,6.69,6.69,0,0,1,1.77,1.16,5,5,0,0,1,1.33,1.74,5.93,5.93,0,0,1,.5,2.54,5.57,5.57,0,0,1-2.16,4.68A9.72,9.72,0,0,1,61.58,86.11Zm14.57-.33V66.09h5.53V85.78Zm-5.89-15v-4.7H87.6v4.7ZM98.64,86.17a11.53,11.53,0,0,1-4.29-.78A10.38,10.38,0,0,1,91,83.23,9.74,9.74,0,0,1,88.71,80a10.16,10.16,0,0,1-.81-4.07,10.35,10.35,0,0,1,.78-4.06,9.86,9.86,0,0,1,2.24-3.24,10.07,10.07,0,0,1,3.37-2.13,11.73,11.73,0,0,1,4.29-.77,11.49,11.49,0,0,1,4.26.77,10,10,0,0,1,3.4,2.13,9.42,9.42,0,0,1,2.21,3.27,10,10,0,0,1,.81,4.06,10.2,10.2,0,0,1-.81,4.07,9.76,9.76,0,0,1-2.21,3.26,10.47,10.47,0,0,1-3.37,2.16A11.61,11.61,0,0,1,98.64,86.17Zm-.06-4.87a5.13,5.13,0,0,0,2.68-.67A4.42,4.42,0,0,0,103,78.75a6.37,6.37,0,0,0,.6-2.85,6.23,6.23,0,0,0-.36-2.18,4.45,4.45,0,0,0-1-1.69A4.16,4.16,0,0,0,100.65,71a5.38,5.38,0,0,0-2.07-.38,5.22,5.22,0,0,0-2.68.66,4.24,4.24,0,0,0-1.75,1.85,6.23,6.23,0,0,0-.6,2.82,7.19,7.19,0,0,0,.33,2.25,5.05,5.05,0,0,0,1,1.71,4.73,4.73,0,0,0,1.58,1.08A5.82,5.82,0,0,0,98.58,81.3Zm13,4.48V66.09h3.88l1.66,4.14V85.78Zm13.56,0L113.66,71.42l1.75-5.33,11.42,14.35Zm0,0-1.39-4.37V66.09h5.54V85.78Z"/><path class="cls-4" d="M2.76,111.05l7-16.91h1.94l6.91,16.91h-3l-5.41-13.7h1l-5.46,13.7Zm3.44-3.26v-2.42h9v2.42Zm14.6,3.26V94.14h1.93l.85,3.19v13.72Zm11.72,0L22.39,97.84l.34-3.7,10.12,13.22Zm0,0-.85-3V94.14h2.78v16.91Zm4.34,0,7-16.91h1.93l6.91,16.91h-3l-5.42-13.7h1l-5.46,13.7Zm3.43-3.26v-2.42h9v2.42Zm14.6,3.26V94.14h2.78v16.91Zm1.91,0v-2.53h8.85v2.53Zm14.29-6.76-6.6-10.15h3.22l5.14,8.09h-1.5l5.15-8.09h3.17L73,104.29Zm-.39,6.76v-8.5h2.78v8.5Zm14.52,0V94.62H88v16.43ZM79.71,96.68V94.14h13.8v2.54Zm16.22,14.37V94.14h2.78v16.91Zm14.12.24a8.66,8.66,0,0,1-3.4-.65,8.4,8.4,0,0,1-2.71-1.86,8.56,8.56,0,0,1-1.79-2.78,9.17,9.17,0,0,1-.63-3.4,9,9,0,0,1,.63-3.39,8.36,8.36,0,0,1,1.79-2.78,8.72,8.72,0,0,1,2.71-1.86,8.49,8.49,0,0,1,3.4-.67,8.63,8.63,0,0,1,3.56.67,9.2,9.2,0,0,1,2.65,1.84l-1.88,1.89A5.18,5.18,0,0,0,112.54,97a6.36,6.36,0,0,0-2.49-.45,5.88,5.88,0,0,0-2.29.43A5.1,5.1,0,0,0,106,98.25a5.41,5.41,0,0,0-1.16,1.91,7.3,7.3,0,0,0,0,4.88A5.78,5.78,0,0,0,106,107a5.29,5.29,0,0,0,1.81,1.23,5.88,5.88,0,0,0,2.29.44,6.7,6.7,0,0,0,2.61-.46,5.36,5.36,0,0,0,1.84-1.31l1.88,1.89a8.37,8.37,0,0,1-2.73,1.86A9,9,0,0,1,110.05,111.29Zm13.24,0a7.41,7.41,0,0,1-3.41-.72,7.71,7.71,0,0,1-2.51-2.13l1.89-1.88a5.22,5.22,0,0,0,1.66,1.59,4.93,4.93,0,0,0,2.47.56,3.77,3.77,0,0,0,2.22-.58,1.85,1.85,0,0,0,.85-1.6,2.09,2.09,0,0,0-.44-1.37,3.06,3.06,0,0,0-1.16-.87,9.88,9.88,0,0,0-1.57-.63q-.84-.28-1.71-.63a8.14,8.14,0,0,1-1.58-.89,4.15,4.15,0,0,1-1.13-1.38,4.67,4.67,0,0,1-.44-2.15,4.35,4.35,0,0,1,.73-2.54,4.74,4.74,0,0,1,2-1.62,6.83,6.83,0,0,1,2.8-.55,6.49,6.49,0,0,1,3,.65,6.15,6.15,0,0,1,2.15,1.67l-1.88,1.88a5.06,5.06,0,0,0-1.53-1.21,3.77,3.77,0,0,0-1.78-.41,3.43,3.43,0,0,0-2,.51,1.68,1.68,0,0,0-.7,1.43,1.8,1.8,0,0,0,.44,1.25,3.93,3.93,0,0,0,1.13.8c.49.21,1,.41,1.57.6s1.16.41,1.72.66a6.06,6.06,0,0,1,1.57.94,4,4,0,0,1,1.16,1.45,5.09,5.09,0,0,1,.44,2.25,4.42,4.42,0,0,1-1.62,3.6A6.6,6.6,0,0,1,123.29,111.29Z"/></svg>